<svg id="svg" version="1.1" xmlns="http://www.w3.org/2000/svg" xmlns:xlink="http://www.w3.org/1999/xlink" width="400" height="310.7142857142857" viewBox="0, 0, 400,310.7142857142857"><g id="svgg"><path id="path0" d="M219.116 29.355 C 219.533 29.899,221.832 32.347,223.709 34.247 C 224.782 35.331,225.928 36.551,227.817 38.616 C 228.757 39.644,230.925 41.933,232.634 43.702 C 234.343 45.471,237.490 48.752,239.627 50.993 C 243.376 54.926,248.849 60.567,251.748 63.487 C 252.517 64.262,253.334 65.084,253.563 65.315 C 257.769 69.559,260.020 72.184,260.639 73.568 C 261.037 74.458,261.722 75.421,262.160 75.709 C 262.612 76.005,263.402 77.192,263.982 78.449 C 264.581 79.744,265.350 80.892,265.831 81.207 C 267.188 82.096,267.591 83.313,267.909 87.481 C 268.252 91.973,268.401 92.734,269.194 94.055 C 270.355 95.989,270.330 98.641,269.134 100.305 L 268.093 101.756 267.893 106.434 C 267.668 111.670,267.264 113.122,265.841 113.803 C 265.176 114.121,264.823 114.643,264.418 115.908 C 263.863 117.634,262.830 119.037,262.112 119.037 C 261.674 119.037,260.761 120.668,260.161 122.524 C 259.936 123.220,259.297 124.068,258.555 124.656 C 257.877 125.192,257.126 126.103,256.885 126.678 C 256.645 127.254,255.985 128.002,255.419 128.341 C 254.853 128.679,254.033 129.556,253.596 130.290 C 253.159 131.024,252.363 131.904,251.828 132.246 C 251.293 132.587,250.487 133.533,250.038 134.346 C 249.588 135.160,248.809 136.038,248.307 136.298 C 247.805 136.557,247.149 137.290,246.850 137.925 C 246.551 138.560,245.781 139.419,245.140 139.834 C 244.321 140.364,243.881 140.933,243.663 141.742 C 243.350 142.905,242.889 143.451,241.722 144.044 C 240.931 144.446,240.645 144.975,240.404 146.479 C 240.269 147.324,240.000 147.757,239.455 148.005 C 238.408 148.482,238.496 148.759,239.925 149.489 C 241.227 150.153,244.911 150.393,244.911 149.814 C 244.911 149.414,246.578 148.563,247.361 148.563 C 247.740 148.563,248.318 148.054,248.863 147.242 C 249.447 146.371,250.116 145.803,250.826 145.574 C 251.492 145.360,252.213 144.778,252.712 144.050 C 253.157 143.403,254.008 142.624,254.604 142.318 C 255.199 142.013,256.067 141.263,256.532 140.653 C 256.998 140.043,257.895 139.278,258.526 138.954 C 259.157 138.630,259.920 137.943,260.222 137.426 C 260.523 136.910,261.230 136.203,261.792 135.855 C 262.354 135.508,263.476 134.553,264.284 133.735 C 265.092 132.916,266.554 131.511,267.531 130.612 C 271.374 127.081,275.058 123.392,275.058 123.074 C 275.058 122.890,275.667 122.081,276.410 121.277 C 277.154 120.472,278.273 119.044,278.897 118.104 C 279.522 117.164,280.518 115.794,281.112 115.060 C 281.705 114.326,282.389 113.058,282.631 112.242 C 282.874 111.426,283.368 110.107,283.731 109.312 C 286.545 103.134,286.495 88.283,283.645 83.761 C 283.429 83.419,282.938 82.352,282.554 81.391 C 282.170 80.429,281.431 79.240,280.914 78.749 C 280.396 78.257,279.576 77.074,279.091 76.120 C 277.571 73.128,274.450 69.790,261.675 57.498 C 259.277 55.190,255.938 51.974,254.256 50.350 C 252.573 48.726,249.471 45.789,247.362 43.823 C 245.252 41.857,242.890 39.619,242.112 38.850 C 240.173 36.933,238.073 35.123,238.073 35.370 C 238.073 35.482,239.577 37.058,241.414 38.872 C 243.252 40.686,247.273 44.804,250.350 48.023 C 253.427 51.242,256.264 54.166,256.656 54.521 C 257.048 54.876,258.739 56.706,260.415 58.586 C 262.091 60.466,265.315 63.893,267.581 66.200 C 273.788 72.524,273.881 72.627,274.571 73.957 C 274.925 74.637,275.700 75.516,276.294 75.910 C 277.136 76.469,277.423 76.912,277.595 77.917 C 277.857 79.456,278.394 80.545,279.690 82.172 C 280.549 83.250,280.652 83.601,280.648 85.435 C 280.641 88.242,280.438 88.505,278.645 88.025 C 277.864 87.817,276.613 87.646,275.866 87.646 C 274.672 87.646,274.333 87.475,273.087 86.247 C 272.307 85.478,271.400 84.848,271.071 84.848 C 270.201 84.848,269.924 84.329,269.497 81.896 C 269.039 79.288,268.526 78.418,267.095 77.820 C 266.503 77.572,265.944 77.129,265.853 76.836 C 265.365 75.251,264.700 74.194,263.904 73.737 C 263.329 73.407,262.619 72.430,261.902 70.982 C 261.292 69.749,260.421 68.483,259.967 68.169 C 259.512 67.856,258.561 67.025,257.853 66.323 C 256.479 64.960,250.262 59.036,245.677 54.719 C 242.701 51.918,235.239 44.702,226.884 36.547 C 221.329 31.125,218.381 28.395,219.116 29.355 M167.931 33.046 C 167.044 33.589,164.812 35.431,162.970 37.141 C 161.127 38.850,158.635 41.150,157.432 42.252 C 153.029 46.284,151.675 47.603,140.592 58.663 C 131.461 67.775,129.129 70.271,128.396 71.717 C 127.898 72.700,127.113 73.854,126.652 74.281 C 126.190 74.709,125.459 75.758,125.027 76.612 C 124.595 77.467,123.723 78.732,123.089 79.424 C 122.237 80.355,121.792 81.245,121.380 82.843 C 121.074 84.032,120.407 86.333,119.899 87.956 C 117.972 94.110,118.030 99.213,120.065 102.606 C 120.615 103.523,121.452 105.183,121.926 106.294 C 123.470 109.917,123.415 109.851,125.044 110.039 C 127.114 110.279,127.203 110.103,127.755 104.731 C 128.072 101.636,128.064 101.555,127.287 100.229 C 126.406 98.726,126.323 98.066,126.889 97.073 C 128.422 94.381,128.431 94.346,128.688 89.926 C 129.041 83.850,129.341 82.897,131.214 81.908 C 131.561 81.725,132.258 80.512,132.826 79.099 C 133.805 76.665,133.851 76.610,134.979 76.516 C 136.123 76.420,136.131 76.410,136.131 75.019 C 136.131 73.234,136.486 72.592,138.009 71.631 C 138.685 71.204,139.239 70.657,139.239 70.416 C 139.239 69.730,140.710 68.153,141.545 67.944 C 142.005 67.828,142.583 67.242,143.023 66.443 C 143.445 65.680,144.241 64.855,144.928 64.469 C 145.578 64.104,146.347 63.333,146.637 62.755 C 146.930 62.171,147.708 61.400,148.389 61.021 C 149.086 60.633,149.860 59.860,150.184 59.228 C 150.498 58.617,151.290 57.779,151.944 57.366 C 152.599 56.953,153.431 56.111,153.794 55.496 C 154.157 54.880,154.958 54.080,155.574 53.717 C 156.189 53.353,157.026 52.528,157.434 51.883 C 157.841 51.237,158.573 50.474,159.059 50.186 C 159.546 49.899,160.330 49.054,160.801 48.310 C 161.272 47.565,162.108 46.678,162.659 46.337 C 163.209 45.997,163.971 45.165,164.352 44.488 C 164.732 43.811,165.461 42.993,165.971 42.670 C 166.481 42.347,167.306 41.438,167.806 40.651 C 168.305 39.863,169.092 39.031,169.555 38.801 C 170.017 38.572,170.703 37.824,171.079 37.141 C 171.455 36.457,172.200 35.618,172.734 35.276 C 173.269 34.934,173.774 34.490,173.858 34.289 C 174.188 33.500,171.135 35.902,170.552 36.892 C 170.210 37.471,169.403 38.214,168.757 38.543 C 168.112 38.872,167.285 39.625,166.920 40.216 C 166.555 40.807,165.651 41.645,164.911 42.079 C 164.169 42.514,163.403 43.261,163.202 43.746 C 163.002 44.230,162.329 44.900,161.707 45.234 C 161.085 45.569,160.184 46.383,159.706 47.043 C 159.228 47.703,158.294 48.512,157.632 48.839 C 156.970 49.167,156.235 49.796,155.999 50.237 C 155.763 50.678,155.007 51.428,154.320 51.904 C 153.632 52.380,152.730 53.135,152.316 53.580 C 151.901 54.026,151.377 54.390,151.150 54.390 C 150.924 54.390,150.738 54.573,150.738 54.796 C 150.738 55.314,148.001 57.261,147.611 57.020 C 146.704 56.459,147.732 54.515,149.045 54.311 C 150.066 54.152,150.427 53.770,150.427 52.850 C 150.427 52.009,152.163 50.039,152.904 50.039 C 153.057 50.039,153.273 49.753,153.384 49.405 C 153.630 48.629,160.546 40.824,163.865 37.577 C 164.332 37.119,165.221 36.135,165.841 35.389 C 166.461 34.643,167.687 33.581,168.566 33.030 C 169.444 32.478,170.023 32.034,169.852 32.043 C 169.681 32.052,168.817 32.504,167.931 33.046 M160.486 57.789 C 159.438 58.083,158.179 58.631,157.689 59.007 C 157.199 59.383,155.351 60.771,153.581 62.091 C 148.236 66.078,147.846 66.402,143.178 70.736 C 142.182 71.660,141.250 72.416,141.106 72.416 C 140.963 72.416,140.123 73.326,139.239 74.437 C 138.146 75.810,137.415 76.457,136.956 76.457 C 136.106 76.457,135.573 77.295,135.334 79.007 C 135.048 81.053,134.571 82.038,133.630 82.525 C 132.720 82.995,132.741 82.921,131.796 89.200 C 130.416 98.367,131.284 108.909,133.669 111.941 C 134.163 112.569,135.012 114.015,135.556 115.154 C 136.100 116.293,136.882 117.446,137.293 117.716 C 137.705 117.985,138.595 119.022,139.273 120.020 C 139.951 121.017,140.634 121.834,140.793 121.834 C 140.951 121.834,142.685 123.407,144.646 125.330 C 146.608 127.253,148.606 129.187,149.087 129.626 C 149.568 130.066,150.241 130.729,150.583 131.099 C 150.925 131.470,152.183 132.689,153.380 133.810 C 154.577 134.930,156.335 136.612,157.287 137.549 L 159.019 139.251 161.137 139.314 C 163.434 139.382,163.276 139.478,164.824 137.067 C 165.207 136.472,165.837 135.826,166.224 135.633 C 166.611 135.440,167.335 134.729,167.832 134.054 C 169.433 131.876,171.251 131.697,171.251 133.716 C 171.251 134.469,170.935 134.983,169.852 135.991 C 169.083 136.707,168.454 137.422,168.454 137.580 C 168.454 137.737,167.745 139.017,166.879 140.425 C 165.057 143.385,164.684 144.796,165.548 145.454 C 166.038 145.826,166.065 145.826,165.734 145.455 C 164.629 144.215,167.412 140.201,174.141 133.333 C 175.062 132.393,176.036 131.261,176.306 130.817 C 176.576 130.373,177.239 129.827,177.780 129.603 C 178.458 129.322,178.972 128.754,179.440 127.768 C 179.931 126.735,180.443 126.188,181.295 125.787 C 181.961 125.473,182.757 124.750,183.128 124.122 C 183.545 123.416,184.254 122.810,185.080 122.456 C 186.003 122.060,186.534 121.571,186.918 120.763 C 187.236 120.091,187.798 119.503,188.290 119.325 C 189.948 118.725,190.501 118.306,190.987 117.282 C 191.331 116.558,191.694 116.239,192.175 116.239 C 193.098 116.239,194.149 115.471,194.710 114.387 C 195.121 113.592,195.269 113.528,196.185 113.748 C 197.600 114.087,198.291 114.397,198.291 114.693 C 198.291 114.832,198.372 115.158,198.472 115.417 C 198.598 115.745,198.268 116.086,197.393 116.532 C 196.339 117.070,196.063 117.417,195.707 118.650 C 195.359 119.856,195.076 120.223,194.151 120.668 C 193.429 121.015,192.792 121.658,192.388 122.450 C 191.981 123.248,191.323 123.911,190.544 124.308 C 189.784 124.696,189.062 125.413,188.606 126.233 C 188.206 126.952,187.459 127.770,186.946 128.052 C 186.434 128.334,185.661 129.083,185.230 129.717 C 184.799 130.351,183.883 131.205,183.195 131.615 C 182.507 132.025,181.746 132.731,181.504 133.185 C 181.261 133.638,180.522 134.437,179.861 134.960 C 179.200 135.484,178.330 136.434,177.928 137.071 C 177.525 137.709,176.727 138.521,176.154 138.875 C 175.581 139.229,174.793 140.086,174.403 140.780 C 174.013 141.474,173.298 142.247,172.813 142.498 C 172.329 142.748,171.618 143.481,171.233 144.126 C 170.849 144.771,170.319 145.474,170.056 145.688 C 169.793 145.901,169.735 146.076,169.928 146.076 C 170.120 146.076,170.789 145.451,171.415 144.687 C 172.041 143.923,173.024 143.128,173.598 142.920 C 174.239 142.688,174.778 142.213,174.995 141.690 C 175.515 140.434,176.330 139.828,177.754 139.637 C 178.902 139.483,179.021 139.384,179.021 138.576 C 179.021 136.880,180.830 135.873,181.621 137.129 C 182.027 137.775,181.015 139.330,180.076 139.502 C 179.752 139.561,179.347 139.756,179.176 139.936 C 178.963 140.160,179.011 140.185,179.332 140.016 C 179.711 139.815,179.725 139.847,179.409 140.188 C 179.196 140.418,179.021 140.845,179.021 141.138 C 179.021 141.430,178.348 142.346,177.525 143.173 C 176.703 144.001,175.776 145.097,175.465 145.610 C 175.154 146.123,174.604 146.899,174.241 147.336 C 173.879 147.772,174.429 147.283,175.463 146.248 C 176.498 145.213,178.376 143.388,179.638 142.191 C 180.899 140.995,182.413 139.387,183.003 138.618 C 183.592 137.850,184.527 136.913,185.081 136.537 C 185.636 136.160,186.377 135.364,186.729 134.767 C 187.082 134.170,187.914 133.321,188.580 132.881 C 189.245 132.440,190.100 131.661,190.478 131.148 C 190.857 130.636,191.776 129.931,192.520 129.581 C 193.265 129.231,194.763 128.171,195.849 127.226 C 196.935 126.281,198.340 125.242,198.969 124.918 C 199.599 124.594,200.317 124.040,200.564 123.687 C 200.811 123.334,201.694 122.790,202.527 122.479 C 203.699 122.040,204.185 121.642,204.680 120.712 C 205.165 119.803,205.607 119.432,206.504 119.180 C 207.748 118.831,208.969 117.926,209.223 117.164 C 209.353 116.775,209.602 116.783,211.058 117.222 C 211.985 117.502,213.102 117.811,213.540 117.909 C 213.979 118.007,214.664 118.371,215.064 118.717 C 215.464 119.064,216.180 119.347,216.657 119.347 C 217.134 119.347,217.610 119.487,217.716 119.658 C 217.821 119.829,218.307 119.969,218.796 119.969 C 219.284 119.969,219.732 120.112,219.790 120.287 C 219.848 120.461,220.594 120.728,221.447 120.879 C 224.760 121.465,227.719 122.210,229.022 122.786 C 229.868 123.160,231.078 123.388,232.224 123.388 C 233.676 123.388,234.307 123.552,235.209 124.165 C 236.158 124.809,236.724 124.942,238.534 124.946 C 242.466 124.954,245.174 126.380,245.204 128.459 C 245.228 130.098,244.801 130.740,243.526 130.979 C 242.548 131.163,242.392 131.335,242.014 132.647 C 241.669 133.846,241.372 134.227,240.377 134.753 C 239.250 135.348,238.660 136.098,238.255 137.452 C 238.165 137.751,237.579 138.241,236.951 138.540 C 236.137 138.927,235.649 139.458,235.249 140.389 C 234.849 141.323,234.343 141.871,233.470 142.317 C 232.623 142.749,232.057 143.347,231.618 144.274 C 231.215 145.124,230.595 145.817,229.913 146.178 C 229.324 146.490,228.615 147.220,228.339 147.798 C 228.063 148.377,227.270 149.226,226.577 149.685 C 225.883 150.144,225.088 151.000,224.809 151.588 C 224.530 152.175,223.770 152.991,223.120 153.402 C 222.470 153.812,221.779 154.465,221.585 154.852 C 221.391 155.239,220.441 156.290,219.474 157.188 L 217.716 158.820 219.302 157.809 C 220.175 157.254,221.214 156.334,221.611 155.767 C 222.007 155.199,222.876 154.458,223.541 154.119 C 224.205 153.779,225.023 153.038,225.357 152.472 C 225.691 151.905,226.596 151.043,227.366 150.556 C 228.137 150.069,229.034 149.219,229.360 148.667 C 229.685 148.115,230.527 147.370,231.230 147.011 C 231.934 146.652,232.593 146.120,232.695 145.829 C 232.946 145.116,234.060 143.903,234.475 143.890 C 235.031 143.873,236.100 142.836,236.642 141.787 C 236.927 141.237,237.699 140.520,238.385 140.171 C 239.130 139.790,239.840 139.106,240.183 138.436 C 240.505 137.809,241.281 137.035,241.976 136.648 C 242.679 136.256,243.429 135.504,243.736 134.883 C 244.045 134.259,244.767 133.536,245.440 133.178 C 246.140 132.805,246.896 132.034,247.328 131.252 C 247.723 130.534,248.355 129.854,248.732 129.739 C 249.732 129.434,250.533 128.653,251.016 127.511 C 251.285 126.875,251.897 126.274,252.683 125.873 C 253.496 125.458,254.114 124.839,254.470 124.082 C 254.830 123.317,255.413 122.738,256.189 122.372 C 256.876 122.049,257.503 121.468,257.702 120.972 C 258.446 119.114,258.681 118.796,259.617 118.381 C 260.367 118.047,260.644 117.680,260.828 116.773 C 261.156 115.160,261.920 113.745,262.963 112.821 C 263.746 112.127,263.909 111.626,264.484 108.159 C 265.779 100.347,265.714 98.600,263.831 90.512 L 262.870 86.386 261.535 85.468 C 260.801 84.963,259.942 84.203,259.626 83.779 C 259.135 83.120,258.580 82.935,255.789 82.497 C 253.725 82.173,252.068 81.722,251.282 81.270 C 250.598 80.878,249.270 80.338,248.329 80.071 C 247.389 79.805,245.571 79.272,244.289 78.886 C 242.354 78.305,241.208 78.184,237.538 78.176 L 233.119 78.166 231.789 76.674 C 230.597 75.338,230.216 75.122,228.127 74.607 C 226.845 74.291,225.027 73.819,224.087 73.559 C 217.448 71.718,210.774 69.928,202.486 67.763 C 200.606 67.272,195.711 65.929,191.608 64.780 C 187.506 63.630,183.380 62.521,182.440 62.315 C 181.500 62.108,179.891 61.689,178.866 61.384 C 177.840 61.078,175.882 60.576,174.514 60.267 C 173.147 59.959,171.259 59.472,170.319 59.187 C 167.570 58.352,163.049 57.184,162.708 57.221 C 162.535 57.240,161.535 57.495,160.486 57.789 M145.594 58.716 C 145.850 59.130,144.808 60.084,144.470 59.746 C 144.316 59.592,144.280 59.234,144.390 58.949 C 144.605 58.389,145.308 58.253,145.594 58.716 M230.925 80.031 C 230.925 80.287,230.715 80.497,230.458 80.497 C 229.973 80.497,229.842 80.130,230.199 79.772 C 230.557 79.414,230.925 79.546,230.925 80.031 M136.923 97.717 C 137.236 98.031,137.705 98.131,138.299 98.012 C 139.171 97.838,142.502 98.657,143.108 99.194 C 143.270 99.338,143.655 99.456,143.963 99.456 C 144.270 99.456,144.522 99.652,144.522 99.892 C 144.522 100.412,146.092 101.010,147.459 101.010 C 147.998 101.010,148.610 101.181,148.819 101.391 C 149.029 101.600,150.210 101.871,151.445 101.992 C 154.641 102.305,156.689 102.688,160.062 103.601 C 164.868 104.902,165.807 105.248,165.906 105.752 C 166.004 106.246,166.872 106.593,168.030 106.600 C 168.395 106.603,170.213 107.108,172.070 107.723 C 173.927 108.338,176.356 108.952,177.467 109.087 C 181.029 109.521,183.517 110.046,183.928 110.451 C 184.508 111.023,184.550 112.534,183.994 112.804 C 183.737 112.929,183.111 113.232,182.602 113.477 C 181.948 113.793,181.537 114.331,181.199 115.315 C 180.840 116.358,180.472 116.816,179.725 117.146 C 179.058 117.441,178.519 118.036,178.089 118.949 C 177.707 119.763,177.026 120.561,176.399 120.931 C 175.822 121.271,175.121 122.031,174.842 122.620 C 174.563 123.208,173.775 124.138,173.092 124.687 C 172.390 125.252,171.443 126.486,170.913 127.530 C 170.391 128.557,168.777 130.673,167.272 132.302 C 165.785 133.911,164.235 135.886,163.828 136.689 C 162.459 139.391,159.360 139.534,157.770 136.970 C 157.473 136.492,156.692 135.723,156.033 135.261 C 155.374 134.799,154.617 133.971,154.350 133.421 C 154.084 132.871,153.322 132.078,152.658 131.659 C 151.994 131.239,151.153 130.393,150.790 129.777 C 150.427 129.162,149.631 128.364,149.022 128.005 C 148.413 127.645,147.638 126.809,147.300 126.146 C 146.962 125.484,146.128 124.590,145.448 124.161 C 144.768 123.731,144.211 123.247,144.211 123.084 C 144.211 122.620,142.327 120.591,141.896 120.591 C 141.315 120.591,140.576 119.619,140.351 118.559 C 140.241 118.040,139.586 116.997,138.895 116.242 C 137.532 114.750,136.977 113.653,136.619 111.743 C 136.341 110.261,135.839 109.249,134.761 108.003 C 133.585 106.643,133.228 100.704,134.138 97.636 C 134.389 96.790,136.044 96.839,136.923 97.717 M177.576 125.945 C 177.942 127.345,176.598 128.412,175.161 127.861 C 174.419 127.576,174.564 127.098,175.680 126.142 C 176.913 125.087,177.340 125.043,177.576 125.945 M174.170 128.541 C 174.769 130.101,173.848 131.966,172.599 131.725 C 171.716 131.555,171.742 130.603,172.665 129.271 C 173.589 127.937,173.884 127.794,174.170 128.541 M184.724 133.791 C 184.926 134.316,184.085 135.291,183.658 135.027 C 183.327 134.823,183.275 133.845,183.579 133.541 C 183.937 133.183,184.542 133.315,184.724 133.791 M166.982 145.988 C 167.454 146.060,168.153 146.058,168.536 145.984 C 168.918 145.910,168.531 145.852,167.677 145.854 C 166.822 145.857,166.509 145.917,166.982 145.988 " stroke="none" fill="#f7bd70" fill-rule="evenodd"></path><path id="path1" d="M206.371 15.195 C 206.371 16.196,211.035 21.280,218.631 28.558 C 219.989 29.860,222.598 32.393,224.428 34.188 C 229.096 38.765,242.340 51.556,245.677 54.709 C 251.118 59.851,256.584 65.064,257.853 66.323 C 258.561 67.025,259.512 67.856,259.967 68.169 C 260.421 68.483,261.292 69.749,261.902 70.982 C 262.619 72.430,263.329 73.407,263.904 73.737 C 264.700 74.194,265.365 75.251,265.853 76.836 C 265.944 77.129,266.503 77.572,267.095 77.820 C 268.526 78.418,269.039 79.288,269.497 81.896 C 269.924 84.329,270.201 84.848,271.071 84.848 C 271.400 84.848,272.307 85.478,273.087 86.247 C 274.333 87.475,274.672 87.646,275.866 87.646 C 276.613 87.646,277.864 87.817,278.645 88.025 C 280.438 88.505,280.641 88.242,280.648 85.435 C 280.652 83.601,280.549 83.250,279.690 82.172 C 278.394 80.545,277.857 79.456,277.595 77.917 C 277.423 76.912,277.136 76.469,276.294 75.910 C 275.700 75.516,274.925 74.637,274.571 73.957 C 273.881 72.627,273.788 72.524,267.581 66.200 C 265.315 63.893,262.091 60.466,260.415 58.586 C 258.739 56.706,257.048 54.876,256.656 54.521 C 256.264 54.166,253.427 51.250,250.350 48.042 C 238.163 35.335,226.612 23.781,224.392 22.077 C 223.107 21.091,221.848 20.033,221.595 19.726 C 221.342 19.420,220.414 18.850,219.534 18.460 C 218.653 18.070,217.442 17.320,216.843 16.794 C 215.310 15.448,212.632 14.599,209.246 14.386 L 206.371 14.205 206.371 15.195 M178.710 26.319 C 176.714 26.524,176.305 26.715,175.931 27.617 C 175.573 28.481,174.493 29.215,173.578 29.215 C 173.336 29.215,172.538 29.824,171.806 30.568 C 171.073 31.312,169.600 32.441,168.531 33.077 C 167.463 33.713,166.589 34.333,166.589 34.455 C 166.589 34.576,165.732 35.580,164.684 36.685 C 163.637 37.790,161.985 39.534,161.013 40.559 C 157.313 44.464,153.577 48.795,153.384 49.405 C 153.273 49.753,153.057 50.039,152.904 50.039 C 152.163 50.039,150.427 52.009,150.427 52.850 C 150.427 53.770,150.066 54.152,149.045 54.311 C 147.732 54.515,146.704 56.459,147.611 57.020 C 148.001 57.261,150.738 55.314,150.738 54.796 C 150.738 54.573,150.924 54.390,151.150 54.390 C 151.377 54.390,151.901 54.026,152.316 53.580 C 152.730 53.135,153.632 52.380,154.320 51.904 C 155.007 51.428,155.763 50.678,155.999 50.237 C 156.235 49.796,156.970 49.167,157.632 48.839 C 158.294 48.512,159.228 47.703,159.706 47.043 C 160.184 46.383,161.085 45.569,161.707 45.234 C 162.329 44.900,163.002 44.230,163.202 43.746 C 163.403 43.261,164.169 42.514,164.911 42.079 C 165.651 41.645,166.555 40.807,166.920 40.216 C 167.285 39.625,168.112 38.872,168.757 38.543 C 169.403 38.214,170.225 37.446,170.584 36.837 C 170.944 36.227,171.741 35.432,172.357 35.069 C 172.972 34.705,173.814 33.872,174.228 33.217 C 174.642 32.561,175.528 31.746,176.197 31.404 C 177.032 30.978,177.476 30.513,177.611 29.922 C 177.894 28.681,178.417 28.103,179.769 27.538 C 180.811 27.103,181.006 25.899,179.993 26.157 C 179.886 26.184,179.308 26.257,178.710 26.319 M144.390 58.949 C 144.280 59.234,144.316 59.592,144.470 59.746 C 144.808 60.084,145.850 59.130,145.594 58.716 C 145.308 58.253,144.605 58.389,144.390 58.949 M134.138 97.636 C 133.228 100.704,133.585 106.643,134.761 108.003 C 135.839 109.249,136.341 110.261,136.619 111.743 C 136.977 113.653,137.532 114.750,138.895 116.242 C 139.586 116.997,140.241 118.040,140.351 118.559 C 140.576 119.619,141.315 120.591,141.896 120.591 C 142.327 120.591,144.211 122.620,144.211 123.084 C 144.211 123.247,144.768 123.731,145.448 124.161 C 146.128 124.590,146.962 125.484,147.300 126.146 C 147.638 126.809,148.413 127.645,149.022 128.005 C 149.631 128.364,150.427 129.162,150.790 129.777 C 151.153 130.393,151.994 131.239,152.658 131.659 C 153.322 132.078,154.084 132.871,154.350 133.421 C 154.617 133.971,155.374 134.799,156.033 135.261 C 156.692 135.723,157.473 136.492,157.770 136.970 C 159.360 139.534,162.459 139.391,163.828 136.689 C 164.235 135.886,165.785 133.911,167.272 132.302 C 168.777 130.673,170.391 128.557,170.913 127.530 C 171.443 126.486,172.390 125.252,173.092 124.687 C 173.775 124.138,174.563 123.208,174.842 122.620 C 175.121 122.031,175.822 121.271,176.399 120.931 C 177.026 120.561,177.707 119.763,178.089 118.949 C 178.519 118.036,179.058 117.441,179.725 117.146 C 180.472 116.816,180.840 116.358,181.199 115.315 C 181.537 114.331,181.948 113.793,182.602 113.477 C 183.111 113.232,183.737 112.929,183.994 112.804 C 184.550 112.534,184.508 111.023,183.928 110.451 C 183.517 110.046,181.029 109.521,177.467 109.087 C 176.356 108.952,173.927 108.338,172.070 107.723 C 170.213 107.108,168.395 106.603,168.030 106.600 C 166.872 106.593,166.004 106.246,165.906 105.752 C 165.807 105.248,164.868 104.902,160.062 103.601 C 156.689 102.688,154.641 102.305,151.445 101.992 C 150.210 101.871,149.029 101.600,148.819 101.391 C 148.610 101.181,147.998 101.010,147.459 101.010 C 146.092 101.010,144.522 100.412,144.522 99.892 C 144.522 99.652,144.270 99.456,143.963 99.456 C 143.655 99.456,143.270 99.338,143.108 99.194 C 142.502 98.657,139.171 97.838,138.299 98.012 C 137.705 98.131,137.236 98.031,136.923 97.717 C 136.044 96.839,134.389 96.790,134.138 97.636 M194.710 114.387 C 194.149 115.471,193.098 116.239,192.175 116.239 C 191.694 116.239,191.331 116.558,190.987 117.282 C 190.501 118.306,189.948 118.725,188.290 119.325 C 187.798 119.503,187.236 120.091,186.918 120.763 C 186.534 121.571,186.003 122.060,185.080 122.456 C 184.254 122.810,183.545 123.416,183.128 124.122 C 182.757 124.750,181.961 125.473,181.295 125.787 C 180.443 126.188,179.931 126.735,179.440 127.768 C 178.972 128.754,178.458 129.322,177.780 129.603 C 177.239 129.827,176.576 130.373,176.306 130.817 C 176.036 131.261,175.062 132.393,174.141 133.333 C 165.270 142.388,163.640 145.602,167.832 145.773 C 170.256 145.872,170.177 145.906,171.078 144.368 C 171.528 143.600,172.301 142.762,172.795 142.507 C 173.290 142.251,174.013 141.474,174.403 140.780 C 174.793 140.086,175.581 139.229,176.154 138.875 C 176.727 138.521,177.525 137.709,177.928 137.071 C 178.330 136.434,179.200 135.484,179.861 134.960 C 180.522 134.437,181.261 133.638,181.504 133.185 C 181.746 132.731,182.507 132.025,183.195 131.615 C 183.883 131.205,184.799 130.351,185.230 129.717 C 185.661 129.083,186.434 128.334,186.946 128.052 C 187.459 127.770,188.206 126.952,188.606 126.233 C 189.062 125.413,189.784 124.696,190.544 124.308 C 191.323 123.911,191.981 123.248,192.388 122.450 C 192.792 121.658,193.429 121.015,194.151 120.668 C 195.076 120.223,195.359 119.856,195.707 118.650 C 196.063 117.417,196.339 117.070,197.393 116.532 C 198.268 116.086,198.598 115.745,198.472 115.417 C 198.372 115.158,198.291 114.832,198.291 114.693 C 198.291 114.397,197.600 114.087,196.185 113.748 C 195.269 113.528,195.121 113.592,194.710 114.387 M209.013 117.483 C 208.790 118.184,207.960 118.726,206.390 119.194 C 205.627 119.421,205.137 119.856,204.680 120.712 C 204.185 121.642,203.699 122.040,202.527 122.479 C 201.694 122.790,200.811 123.334,200.564 123.687 C 200.317 124.040,199.599 124.594,198.969 124.918 C 198.340 125.242,196.935 126.281,195.849 127.226 C 194.763 128.171,193.265 129.231,192.520 129.581 C 191.776 129.931,190.857 130.636,190.478 131.148 C 190.100 131.661,189.245 132.440,188.580 132.881 C 187.914 133.321,187.082 134.170,186.729 134.767 C 186.377 135.364,185.636 136.160,185.081 136.537 C 184.527 136.913,183.592 137.850,183.003 138.618 C 182.413 139.387,180.900 140.995,179.640 142.191 C 171.962 149.480,170.965 151.391,173.854 153.285 C 174.415 153.652,175.178 154.417,175.549 154.984 C 175.921 155.551,176.767 156.357,177.430 156.775 C 178.093 157.194,178.939 158.027,179.310 158.628 C 179.681 159.229,180.476 160.024,181.077 160.395 C 181.677 160.766,182.491 161.580,182.885 162.204 C 183.279 162.828,184.102 163.609,184.715 163.939 C 185.327 164.268,186.078 165.003,186.385 165.572 C 186.691 166.141,187.477 166.960,188.131 167.393 C 188.785 167.826,189.603 168.660,189.949 169.245 C 190.295 169.831,191.112 170.611,191.766 170.979 C 192.420 171.346,193.210 172.121,193.522 172.701 C 193.835 173.280,194.625 174.109,195.279 174.541 C 195.933 174.974,196.753 175.810,197.100 176.398 C 197.897 177.750,198.557 177.747,199.795 176.387 C 200.336 175.793,201.198 175.090,201.712 174.824 C 202.225 174.559,202.993 173.790,203.419 173.116 C 203.844 172.442,204.606 171.676,205.112 171.415 C 205.618 171.153,206.464 170.310,206.993 169.541 C 207.522 168.772,208.105 168.143,208.287 168.143 C 208.470 168.143,209.579 167.199,210.751 166.045 C 211.924 164.891,213.096 163.737,213.357 163.481 C 214.895 161.967,216.489 160.369,217.059 159.768 C 217.420 159.388,218.503 158.285,219.465 157.316 C 220.428 156.348,221.378 155.239,221.577 154.852 C 221.776 154.465,222.470 153.812,223.120 153.402 C 223.770 152.991,224.530 152.175,224.809 151.588 C 225.088 151.000,225.883 150.144,226.577 149.685 C 227.270 149.226,228.063 148.377,228.339 147.798 C 228.615 147.220,229.324 146.490,229.913 146.178 C 230.595 145.817,231.215 145.124,231.618 144.274 C 232.057 143.347,232.623 142.749,233.470 142.317 C 234.343 141.871,234.849 141.323,235.249 140.389 C 235.649 139.458,236.137 138.927,236.951 138.540 C 237.579 138.241,238.165 137.751,238.255 137.452 C 238.660 136.098,239.250 135.348,240.377 134.753 C 241.372 134.227,241.669 133.846,242.014 132.647 C 242.392 131.335,242.548 131.163,243.526 130.979 C 244.801 130.740,245.228 130.098,245.204 128.459 C 245.174 126.380,242.466 124.954,238.534 124.946 C 236.724 124.942,236.158 124.809,235.209 124.165 C 234.307 123.552,233.676 123.388,232.224 123.388 C 231.078 123.388,229.868 123.160,229.022 122.786 C 227.719 122.210,224.760 121.465,221.447 120.879 C 220.594 120.728,219.848 120.461,219.790 120.287 C 219.732 120.112,219.284 119.969,218.796 119.969 C 218.307 119.969,217.821 119.829,217.716 119.658 C 217.610 119.487,217.134 119.347,216.657 119.347 C 216.180 119.347,215.464 119.064,215.064 118.717 C 214.664 118.371,213.979 118.009,213.540 117.914 C 213.102 117.819,212.123 117.543,211.367 117.301 C 209.551 116.720,209.248 116.744,209.013 117.483 " stroke="none" fill="#e7876f" fill-rule="evenodd"></path><path id="path2" d="M0.000 155.400 L 0.000 310.800 200.000 310.800 L 400.000 310.800 400.000 155.400 L 400.000 0.000 200.000 0.000 L 0.000 0.000 0.000 155.400 M208.236 11.661 C 208.834 11.883,210.932 12.644,212.898 13.354 C 216.482 14.648,217.755 15.284,218.341 16.071 C 218.514 16.304,219.466 16.880,220.457 17.353 C 221.448 17.825,223.240 19.044,224.440 20.061 C 226.234 21.583,260.439 55.618,264.646 60.068 C 265.330 60.791,266.138 61.593,266.441 61.849 C 270.059 64.910,277.876 73.728,279.091 76.120 C 279.576 77.074,280.396 78.257,280.914 78.749 C 281.431 79.240,282.170 80.429,282.554 81.391 C 282.938 82.352,283.429 83.419,283.645 83.761 C 286.495 88.283,286.545 103.134,283.731 109.312 C 283.368 110.107,282.874 111.426,282.631 112.242 C 282.389 113.058,281.705 114.326,281.112 115.060 C 280.518 115.794,279.522 117.164,278.897 118.104 C 278.273 119.044,277.154 120.472,276.410 121.277 C 275.667 122.081,275.058 122.890,275.058 123.074 C 275.058 123.392,271.374 127.081,267.531 130.612 C 266.554 131.511,265.092 132.916,264.284 133.735 C 263.476 134.553,262.354 135.508,261.792 135.855 C 261.230 136.203,260.523 136.910,260.222 137.426 C 259.920 137.943,259.157 138.630,258.526 138.954 C 257.895 139.278,256.998 140.043,256.532 140.653 C 256.067 141.263,255.199 142.013,254.604 142.318 C 254.008 142.624,253.157 143.403,252.712 144.050 C 252.213 144.778,251.492 145.360,250.826 145.574 C 250.116 145.803,249.447 146.371,248.863 147.242 C 248.318 148.054,247.740 148.563,247.361 148.563 C 246.578 148.563,244.911 149.414,244.911 149.814 C 244.911 150.393,241.227 150.153,239.925 149.489 C 238.496 148.759,238.408 148.482,239.455 148.005 C 240.000 147.757,240.269 147.324,240.404 146.479 C 240.645 144.975,240.931 144.446,241.722 144.044 C 242.889 143.451,243.350 142.905,243.663 141.742 C 243.881 140.933,244.321 140.364,245.140 139.834 C 245.781 139.419,246.551 138.560,246.850 137.925 C 247.149 137.290,247.805 136.557,248.307 136.298 C 248.809 136.038,249.588 135.160,250.038 134.346 C 250.487 133.533,251.293 132.587,251.828 132.246 C 252.363 131.904,253.159 131.024,253.596 130.290 C 254.033 129.556,254.853 128.679,255.419 128.341 C 255.985 128.002,256.645 127.254,256.885 126.678 C 257.126 126.103,257.877 125.192,258.555 124.656 C 259.297 124.068,259.936 123.220,260.161 122.524 C 260.761 120.668,261.674 119.037,262.112 119.037 C 262.830 119.037,263.863 117.634,264.418 115.908 C 264.823 114.643,265.176 114.121,265.841 113.803 C 267.264 113.122,267.668 111.670,267.893 106.434 L 268.093 101.756 269.134 100.305 C 270.330 98.641,270.355 95.989,269.194 94.055 C 268.401 92.734,268.252 91.973,267.909 87.481 C 267.591 83.313,267.188 82.096,265.831 81.207 C 265.350 80.892,264.581 79.744,263.982 78.449 C 263.402 77.192,262.612 76.005,262.160 75.709 C 261.722 75.421,261.038 74.458,260.640 73.568 C 260.174 72.524,258.937 70.934,257.154 69.085 C 255.634 67.509,254.105 65.901,253.756 65.511 C 253.407 65.121,252.637 64.364,252.046 63.830 C 251.455 63.295,250.376 62.246,249.649 61.499 C 248.921 60.751,248.082 59.904,247.784 59.616 C 247.486 59.328,246.640 58.488,245.905 57.751 C 245.170 57.014,235.506 47.378,224.429 36.339 C 200.966 12.955,201.051 13.061,204.351 11.355 C 205.324 10.853,206.246 10.926,208.236 11.661 M181.210 24.871 C 182.865 25.757,182.597 27.722,180.679 28.755 C 180.064 29.086,179.228 29.884,178.822 30.527 C 178.416 31.170,177.529 32.047,176.852 32.475 C 176.174 32.902,175.405 33.669,175.141 34.177 C 174.878 34.686,174.177 35.433,173.582 35.837 C 172.987 36.241,172.083 37.149,171.571 37.855 C 171.060 38.561,170.233 39.350,169.733 39.608 C 169.233 39.867,168.531 40.552,168.173 41.132 C 167.815 41.712,166.980 42.545,166.317 42.983 C 165.654 43.422,164.810 44.269,164.442 44.865 C 164.073 45.461,163.294 46.231,162.711 46.575 C 162.127 46.919,161.293 47.766,160.858 48.456 C 160.422 49.146,159.635 49.933,159.110 50.205 C 158.584 50.477,157.863 51.191,157.509 51.792 C 157.154 52.393,156.315 53.231,155.645 53.654 C 154.975 54.077,154.136 54.917,153.781 55.519 C 153.425 56.122,152.599 56.953,151.944 57.366 C 151.290 57.779,150.498 58.617,150.184 59.228 C 149.860 59.860,149.086 60.633,148.389 61.021 C 147.708 61.400,146.930 62.171,146.637 62.755 C 146.347 63.333,145.578 64.104,144.928 64.469 C 144.241 64.855,143.445 65.680,143.023 66.443 C 142.583 67.242,142.005 67.828,141.545 67.944 C 140.710 68.153,139.239 69.730,139.239 70.416 C 139.239 70.657,138.685 71.204,138.009 71.631 C 136.486 72.592,136.131 73.234,136.131 75.019 C 136.131 76.410,136.123 76.420,134.979 76.516 C 133.851 76.610,133.805 76.665,132.826 79.099 C 132.258 80.512,131.561 81.725,131.214 81.908 C 129.341 82.897,129.041 83.850,128.688 89.926 C 128.431 94.346,128.422 94.381,126.889 97.073 C 126.323 98.066,126.406 98.726,127.287 100.229 C 128.064 101.555,128.072 101.636,127.755 104.731 C 127.203 110.103,127.114 110.279,125.044 110.039 C 123.415 109.851,123.470 109.917,121.926 106.294 C 121.452 105.183,120.615 103.523,120.065 102.606 C 118.030 99.213,117.972 94.110,119.899 87.956 C 120.407 86.333,121.074 84.032,121.380 82.843 C 121.792 81.245,122.237 80.355,123.089 79.424 C 123.723 78.732,124.595 77.467,125.027 76.612 C 125.459 75.758,126.190 74.709,126.652 74.281 C 127.113 73.854,127.896 72.704,128.392 71.725 C 129.125 70.279,131.898 67.332,143.202 55.986 C 150.851 48.308,157.470 41.627,157.910 41.138 C 158.350 40.649,160.029 38.957,161.640 37.378 C 163.251 35.799,164.965 34.083,165.450 33.564 C 165.935 33.044,166.867 32.346,167.522 32.012 C 168.177 31.678,169.515 30.702,170.496 29.844 C 171.477 28.985,172.455 28.283,172.669 28.283 C 172.883 28.283,173.775 27.591,174.652 26.746 C 175.960 25.485,176.509 25.174,177.711 25.012 C 178.517 24.904,179.316 24.767,179.487 24.709 C 180.083 24.505,180.620 24.555,181.210 24.871 M165.816 57.928 C 167.352 58.335,169.378 58.901,170.319 59.187 C 171.259 59.472,173.147 59.959,174.514 60.267 C 175.882 60.576,177.840 61.078,178.866 61.384 C 179.891 61.689,181.500 62.108,182.440 62.315 C 183.380 62.521,187.506 63.630,191.608 64.780 C 195.711 65.929,200.606 67.272,202.486 67.763 C 210.774 69.928,217.448 71.718,224.087 73.559 C 225.027 73.819,226.845 74.291,228.127 74.607 C 230.216 75.122,230.597 75.338,231.789 76.674 L 233.119 78.166 237.538 78.176 C 241.208 78.184,242.354 78.305,244.289 78.886 C 245.571 79.272,247.389 79.805,248.329 80.071 C 249.270 80.338,250.598 80.878,251.282 81.270 C 252.068 81.722,253.725 82.173,255.789 82.497 C 258.580 82.935,259.135 83.120,259.626 83.779 C 259.942 84.203,260.801 84.963,261.535 85.468 L 262.870 86.386 263.831 90.512 C 265.714 98.600,265.779 100.347,264.484 108.159 C 263.909 111.626,263.746 112.127,262.963 112.821 C 261.920 113.745,261.156 115.160,260.828 116.773 C 260.644 117.680,260.367 118.047,259.617 118.381 C 258.681 118.796,258.446 119.114,257.702 120.972 C 257.503 121.468,256.876 122.049,256.189 122.372 C 255.413 122.738,254.830 123.317,254.470 124.082 C 254.114 124.839,253.496 125.458,252.683 125.873 C 251.897 126.274,251.285 126.875,251.016 127.511 C 250.533 128.653,249.732 129.434,248.732 129.739 C 248.355 129.854,247.723 130.534,247.328 131.252 C 246.896 132.034,246.140 132.805,245.440 133.178 C 244.767 133.536,244.045 134.259,243.736 134.883 C 243.429 135.504,242.679 136.256,241.976 136.648 C 241.281 137.035,240.505 137.809,240.183 138.436 C 239.837 139.111,239.129 139.791,238.368 140.179 C 237.605 140.568,236.927 141.220,236.624 141.855 C 236.352 142.426,235.596 143.225,234.945 143.630 C 234.295 144.035,233.482 144.856,233.140 145.455 C 232.797 146.053,231.954 146.887,231.265 147.309 C 230.576 147.731,229.845 148.478,229.642 148.969 C 229.438 149.460,228.723 150.225,228.053 150.669 C 227.383 151.112,226.440 152.049,225.957 152.751 C 225.474 153.453,224.581 154.295,223.972 154.623 C 223.364 154.951,222.711 155.593,222.521 156.050 C 222.332 156.507,221.541 157.338,220.763 157.897 C 219.985 158.455,219.082 159.365,218.755 159.919 C 218.428 160.473,217.617 161.286,216.953 161.725 C 216.288 162.165,215.489 162.959,215.176 163.491 C 214.863 164.022,214.151 164.739,213.593 165.084 C 213.035 165.430,212.154 166.329,211.636 167.083 C 211.118 167.836,210.280 168.667,209.774 168.928 C 209.268 169.190,208.506 169.955,208.081 170.629 C 207.655 171.303,206.886 172.073,206.371 172.339 C 205.857 172.605,205.086 173.377,204.658 174.055 C 204.230 174.732,203.325 175.637,202.647 176.065 C 201.969 176.493,201.199 177.172,200.936 177.573 C 200.410 178.377,199.223 179.021,198.269 179.021 C 197.762 179.021,192.324 173.930,186.276 167.793 C 185.469 166.974,184.085 165.586,182.557 164.065 C 181.512 163.024,180.088 161.601,179.098 160.606 C 178.105 159.609,176.366 157.870,175.369 156.877 C 174.940 156.450,174.153 155.665,173.620 155.132 C 173.086 154.599,172.283 153.814,171.836 153.388 C 171.168 152.753,170.983 152.222,170.807 150.434 C 170.564 147.974,170.425 147.828,167.988 147.501 C 164.672 147.055,163.792 146.112,163.792 143.009 C 163.792 140.803,163.632 140.657,160.839 140.318 C 158.449 140.028,157.593 139.570,156.688 138.099 C 156.285 137.444,155.522 136.628,154.992 136.286 C 154.462 135.944,153.672 135.138,153.236 134.495 C 152.800 133.851,152.000 133.056,151.459 132.727 C 150.919 132.398,150.139 131.632,149.726 131.026 C 149.314 130.419,148.504 129.604,147.927 129.215 C 147.350 128.826,146.522 127.986,146.088 127.349 C 145.654 126.711,144.789 125.844,144.165 125.421 C 143.542 124.998,142.724 124.154,142.348 123.546 C 141.972 122.938,141.268 122.235,140.783 121.984 C 140.299 121.734,139.530 120.845,139.075 120.008 C 138.620 119.172,137.840 118.187,137.343 117.819 C 136.835 117.444,136.041 116.274,135.533 115.155 C 135.035 114.057,134.210 112.628,133.700 111.980 C 131.283 108.909,130.407 98.427,131.796 89.200 C 132.741 82.921,132.720 82.995,133.630 82.525 C 134.571 82.038,135.048 81.053,135.334 79.007 C 135.573 77.295,136.106 76.457,136.956 76.457 C 137.415 76.457,138.146 75.810,139.239 74.437 C 140.123 73.326,140.963 72.416,141.106 72.416 C 141.250 72.416,142.182 71.660,143.178 70.736 C 147.846 66.402,148.236 66.078,153.581 62.091 C 155.351 60.771,157.199 59.383,157.689 59.007 C 158.425 58.443,161.490 57.352,162.708 57.221 C 162.880 57.202,164.279 57.520,165.816 57.928 M230.199 79.772 C 229.842 80.130,229.973 80.497,230.458 80.497 C 230.715 80.497,230.925 80.287,230.925 80.031 C 230.925 79.546,230.557 79.414,230.199 79.772 M175.933 126.008 C 175.142 126.850,175.247 127.742,176.136 127.734 C 177.084 127.726,177.521 127.245,177.414 126.331 C 177.278 125.173,176.813 125.072,175.933 126.008 M172.992 129.258 C 172.338 129.981,172.440 130.954,173.186 131.097 C 173.819 131.219,174.248 129.906,173.824 129.148 C 173.573 128.699,173.487 128.711,172.992 129.258 M169.088 133.474 C 168.592 134.071,168.795 135.010,169.446 135.136 C 170.043 135.250,170.760 134.122,170.508 133.464 C 170.289 132.893,169.566 132.898,169.088 133.474 M165.845 136.919 C 165.229 137.535,165.202 138.421,165.784 138.904 C 166.237 139.281,167.211 138.322,167.211 137.498 C 167.211 136.745,166.374 136.390,165.845 136.919 M180.161 137.270 C 179.782 137.649,179.946 138.306,180.420 138.306 C 180.679 138.306,180.886 138.030,180.886 137.685 C 180.886 137.065,180.555 136.876,180.161 137.270 M176.418 141.040 C 176.172 141.438,176.742 142.136,177.121 141.902 C 177.620 141.593,177.547 140.793,177.019 140.793 C 176.773 140.793,176.502 140.904,176.418 141.040 M172.910 144.696 C 172.677 145.304,172.957 145.582,173.569 145.347 C 174.183 145.111,174.184 144.641,173.570 144.405 C 173.295 144.300,173.015 144.423,172.910 144.696 M73.035 236.014 C 75.217 237.458,74.534 239.084,71.130 240.548 C 70.070 241.005,69.379 241.573,68.830 242.444 C 68.398 243.128,67.590 243.904,67.034 244.169 C 66.477 244.435,65.748 245.162,65.412 245.786 C 65.053 246.454,64.258 247.221,63.481 247.648 C 62.754 248.049,62.160 248.565,62.160 248.795 C 62.160 249.448,60.714 251.007,59.729 251.414 C 59.228 251.622,58.617 252.250,58.328 252.855 C 58.047 253.445,57.361 254.199,56.803 254.529 C 55.084 255.548,54.975 255.732,55.074 257.444 C 55.164 258.993,55.211 259.068,56.485 259.671 C 57.210 260.014,58.147 260.802,58.567 261.421 C 58.987 262.039,59.830 262.841,60.441 263.201 C 61.052 263.561,61.845 264.354,62.204 264.963 C 62.563 265.571,63.318 266.308,63.881 266.601 C 64.444 266.893,66.490 268.671,68.428 270.552 C 70.837 272.890,72.343 274.105,73.193 274.397 C 75.413 275.159,76.375 276.391,75.776 277.706 C 74.668 280.137,68.130 280.144,66.830 277.715 C 66.590 277.267,65.791 276.634,65.054 276.307 C 64.242 275.948,63.474 275.310,63.105 274.687 C 62.771 274.122,61.938 273.316,61.255 272.896 C 60.572 272.476,59.762 271.662,59.455 271.087 C 59.148 270.513,58.358 269.739,57.700 269.368 C 57.042 268.997,56.261 268.219,55.964 267.640 C 55.549 266.833,54.997 266.414,53.589 265.841 C 50.992 264.785,50.971 264.832,50.971 271.710 C 50.971 277.849,50.812 278.457,49.049 279.072 C 47.918 279.466,46.403 278.885,45.723 277.797 C 45.169 276.909,45.087 237.951,45.638 236.923 C 46.208 235.857,48.057 235.152,49.122 235.593 C 50.751 236.268,50.805 236.488,50.971 243.078 C 51.077 247.261,51.246 249.352,51.499 249.604 C 52.144 250.247,55.241 248.430,55.998 246.965 C 56.822 245.371,66.081 236.057,67.458 235.438 C 69.046 234.724,71.462 234.973,73.035 236.014 M130.023 236.572 C 131.072 237.714,131.746 238.136,133.195 238.558 C 135.525 239.235,135.978 239.525,136.648 240.771 C 136.948 241.326,137.569 241.937,138.029 242.128 C 139.075 242.561,140.028 243.584,140.332 244.600 C 140.460 245.027,141.091 245.867,141.735 246.466 C 145.092 249.588,145.145 265.006,141.811 268.151 C 141.205 268.722,140.414 269.776,140.052 270.492 C 139.611 271.364,139.017 271.972,138.252 272.330 C 137.624 272.624,137.022 273.143,136.915 273.482 C 136.597 274.482,135.019 275.597,133.154 276.140 C 131.880 276.510,131.059 277.010,130.093 278.004 C 128.401 279.744,128.060 279.800,119.931 279.661 C 112.536 279.535,111.478 279.302,110.456 277.572 C 110.005 276.807,109.498 276.497,108.029 276.085 C 105.683 275.427,100.504 270.560,99.432 268.007 C 99.087 267.184,98.287 265.474,97.654 264.205 L 96.503 261.899 96.503 257.351 C 96.503 252.855,96.515 252.781,97.501 250.800 C 98.050 249.697,98.858 247.967,99.295 246.954 C 100.411 244.373,105.589 239.212,107.580 238.697 C 109.785 238.127,110.023 238.042,110.025 237.819 C 110.041 235.630,112.746 234.965,121.300 235.048 L 128.691 235.120 130.023 236.572 M189.831 235.445 C 190.467 235.709,191.686 236.597,192.541 237.418 C 193.395 238.239,194.607 239.216,195.233 239.588 C 198.326 241.429,197.972 253.924,194.827 253.924 C 194.678 253.924,193.733 254.680,192.728 255.604 C 190.388 257.756,190.233 257.831,186.962 258.402 C 183.646 258.980,183.625 258.997,184.847 260.114 C 185.383 260.603,186.021 261.473,186.264 262.048 C 186.508 262.622,187.278 263.615,187.975 264.254 C 188.672 264.893,189.660 266.292,190.171 267.362 C 190.682 268.433,191.545 269.728,192.089 270.241 C 192.633 270.754,193.334 271.760,193.646 272.477 C 193.994 273.278,194.576 273.968,195.155 274.267 C 198.907 276.207,197.628 279.713,193.329 279.274 C 190.926 279.029,190.174 278.598,189.082 276.838 C 188.634 276.115,187.707 274.977,187.023 274.309 C 186.338 273.640,185.426 272.312,184.995 271.356 C 184.564 270.401,183.753 269.233,183.193 268.761 C 182.633 268.289,182.017 267.425,181.825 266.843 C 181.630 266.253,180.896 265.308,180.170 264.713 C 179.358 264.048,178.521 262.925,177.954 261.737 C 176.879 259.489,176.744 259.444,175.919 261.060 C 175.341 262.194,175.291 262.879,175.291 269.745 C 175.291 277.135,175.285 277.207,174.556 278.054 C 173.426 279.368,170.244 279.519,168.827 278.326 L 167.832 277.489 167.832 257.369 L 167.832 237.249 168.580 236.547 C 170.077 235.140,171.162 234.993,180.196 234.979 C 187.160 234.967,188.882 235.051,189.831 235.445 M244.855 235.684 C 245.422 235.993,246.179 236.742,246.536 237.348 C 246.953 238.054,247.662 238.653,248.515 239.018 C 252.602 240.770,252.563 252.889,248.465 254.241 C 247.738 254.481,247.105 255.020,246.587 255.841 C 245.684 257.271,244.605 257.803,241.642 258.276 C 238.491 258.779,238.169 259.018,239.121 260.150 C 239.541 260.648,240.044 261.540,240.239 262.132 C 240.462 262.808,240.986 263.438,241.650 263.830 C 242.312 264.220,243.016 265.068,243.541 266.103 C 244.000 267.011,244.935 268.384,245.617 269.153 C 246.300 269.922,247.142 271.224,247.488 272.047 C 247.961 273.170,248.413 273.693,249.305 274.148 C 252.781 275.921,251.600 279.680,247.679 279.324 C 245.501 279.127,244.130 278.238,242.619 276.043 C 242.085 275.266,241.003 273.909,240.216 273.027 C 239.429 272.144,238.685 271.020,238.561 270.528 C 238.438 270.036,237.718 268.972,236.962 268.163 C 236.205 267.355,235.587 266.535,235.587 266.342 C 235.587 266.149,234.745 265.114,233.715 264.043 C 232.686 262.971,231.510 261.409,231.103 260.573 L 230.361 259.052 229.954 259.984 C 229.667 260.640,229.497 263.374,229.381 269.207 C 229.216 277.447,229.211 277.501,228.462 278.298 C 227.291 279.543,224.209 279.284,222.639 277.809 L 221.911 277.126 221.921 257.366 C 221.932 235.497,221.769 237.103,224.113 235.748 L 225.486 234.954 234.654 235.037 C 242.821 235.111,243.936 235.182,244.855 235.684 M307.621 235.587 C 308.180 235.928,308.793 236.547,308.982 236.964 C 309.338 237.744,310.054 238.124,312.199 238.672 C 313.777 239.076,314.723 239.741,315.298 240.853 C 315.548 241.336,316.275 242.002,316.915 242.335 C 317.671 242.727,318.313 243.403,318.746 244.263 C 319.112 244.991,319.781 245.929,320.232 246.346 C 323.851 249.702,323.745 265.906,320.088 268.468 C 319.760 268.698,319.152 269.555,318.738 270.373 C 318.232 271.371,317.669 271.991,317.027 272.257 C 316.501 272.474,315.687 273.229,315.218 273.933 C 314.509 274.996,314.022 275.331,312.349 275.903 C 311.241 276.283,310.120 276.667,309.857 276.758 C 309.595 276.848,309.125 277.356,308.812 277.886 C 307.849 279.515,306.862 279.720,299.975 279.720 C 291.999 279.720,290.827 279.506,289.200 277.750 C 288.274 276.751,287.563 276.311,286.416 276.024 C 284.350 275.507,279.199 270.567,277.966 267.919 C 277.526 266.974,276.727 265.299,276.190 264.196 C 274.694 261.126,274.694 253.560,276.190 250.489 C 276.727 249.387,277.536 247.690,277.989 246.719 C 279.465 243.555,284.277 239.164,287.103 238.404 C 287.958 238.174,288.613 237.752,288.960 237.206 C 290.195 235.263,291.380 235.017,299.611 234.990 C 306.073 234.969,306.682 235.014,307.621 235.587 M366.497 235.288 C 369.509 236.125,369.507 239.040,366.490 242.823 C 365.974 243.470,365.464 244.519,365.356 245.154 C 365.157 246.327,364.180 248.207,362.620 250.421 C 362.081 251.186,361.630 252.387,361.414 253.638 C 361.021 255.915,360.509 257.064,359.242 258.519 C 358.753 259.080,358.353 259.748,358.353 260.001 C 358.353 260.942,356.757 264.350,355.890 265.260 C 355.206 265.978,354.876 266.788,354.493 268.687 C 354.217 270.054,353.714 271.552,353.375 272.015 C 352.096 273.762,352.400 273.858,360.076 274.132 C 366.978 274.378,367.911 274.616,368.611 276.307 C 369.765 279.092,367.630 279.670,356.177 279.672 C 346.689 279.673,346.071 279.590,344.392 278.086 C 343.226 277.043,343.226 277.092,344.384 275.383 C 344.900 274.621,345.476 273.387,345.664 272.640 C 345.852 271.893,346.756 270.156,347.673 268.778 C 348.590 267.401,349.341 265.977,349.343 265.615 C 349.351 264.185,350.288 261.545,351.182 260.432 C 351.700 259.787,352.541 258.117,353.051 256.720 C 353.604 255.206,354.405 253.708,355.035 253.010 C 355.806 252.157,356.151 251.427,356.307 250.318 C 356.644 247.927,357.109 246.720,358.229 245.335 C 359.531 243.724,360.270 241.290,359.587 240.858 C 359.336 240.699,357.382 240.560,355.245 240.548 C 346.959 240.504,344.746 239.696,345.432 236.966 C 345.873 235.207,347.077 234.994,356.643 234.981 C 361.695 234.974,365.829 235.103,366.497 235.288 M114.996 240.777 C 114.740 240.869,113.968 241.485,113.280 242.145 C 112.543 242.854,111.335 243.583,110.332 243.924 C 108.935 244.398,108.493 244.734,107.852 245.807 C 107.422 246.525,106.628 247.377,106.087 247.700 C 105.261 248.194,105.045 248.579,104.744 250.096 C 104.546 251.090,104.093 253.011,103.737 254.365 C 102.638 258.539,104.027 265.644,106.199 266.965 C 106.721 267.283,107.481 268.138,107.887 268.865 C 108.439 269.854,108.934 270.293,109.854 270.608 C 111.207 271.072,112.401 272.050,112.678 272.922 C 112.971 273.846,114.849 274.124,120.591 274.093 C 126.912 274.059,127.156 274.010,128.117 272.579 C 128.616 271.835,129.325 271.320,130.388 270.929 C 132.513 270.147,135.023 267.638,135.825 265.494 C 136.165 264.586,136.718 263.464,137.054 263.001 C 139.021 260.297,138.972 254.561,136.955 251.437 C 136.568 250.839,136.010 249.701,135.713 248.909 C 135.005 247.016,132.068 244.183,130.249 243.638 C 129.520 243.419,128.692 242.904,128.409 242.492 C 127.026 240.481,127.317 240.557,121.134 240.584 C 118.015 240.597,115.253 240.684,114.996 240.777 M175.835 240.988 C 174.897 241.707,175.025 251.527,175.982 252.197 C 177.835 253.495,188.967 252.711,188.967 251.283 C 188.967 251.046,189.596 250.214,190.365 249.434 C 192.258 247.513,192.353 245.787,190.663 244.033 C 190.057 243.405,189.247 242.401,188.863 241.803 L 188.165 240.715 182.272 240.643 C 177.734 240.588,176.254 240.667,175.835 240.988 M229.915 240.895 C 229.041 241.404,229.093 251.889,229.972 252.359 C 230.323 252.547,232.915 252.681,236.199 252.681 L 241.825 252.681 242.513 251.895 C 242.892 251.463,243.726 250.586,244.367 249.946 C 246.046 248.269,246.125 244.963,244.522 243.449 C 243.967 242.924,243.144 242.059,242.693 241.527 L 241.874 240.559 236.166 240.569 C 232.870 240.574,230.229 240.712,229.915 240.895 M292.272 241.834 C 290.867 243.049,290.106 243.478,287.916 244.286 C 287.274 244.523,286.764 245.033,286.417 245.788 C 286.128 246.416,285.369 247.295,284.729 247.741 C 283.664 248.483,283.531 248.745,283.144 250.849 C 282.912 252.113,282.536 253.689,282.309 254.351 C 281.116 257.831,282.615 265.515,284.762 266.930 C 285.371 267.331,286.114 268.202,286.413 268.866 C 286.712 269.529,287.252 270.160,287.612 270.268 C 289.232 270.755,290.326 271.474,290.926 272.443 C 291.868 273.968,293.094 274.192,299.840 274.072 L 305.573 273.970 306.529 272.778 C 307.118 272.043,308.150 271.294,309.220 270.825 C 311.278 269.924,313.691 267.510,314.230 265.814 C 314.434 265.172,314.992 264.017,315.470 263.248 C 317.524 259.942,317.544 254.031,315.511 251.402 C 315.196 250.994,314.675 249.961,314.354 249.106 C 313.610 247.124,310.716 244.145,309.213 243.816 C 308.549 243.670,307.615 243.025,306.692 242.072 L 305.225 240.559 299.485 240.559 L 293.744 240.559 292.272 241.834 " stroke="none" fill="#fbfbfb" fill-rule="evenodd"></path><path id="path3" d="M114.711 236.769 C 111.035 238.180,113.479 239.005,121.332 239.005 C 128.016 239.005,128.361 238.951,128.361 237.892 C 128.361 236.173,118.400 235.353,114.711 236.769 M172.973 236.435 C 171.107 236.909,170.517 238.007,171.491 239.193 C 172.310 240.191,172.925 240.269,174.799 239.610 C 176.268 239.094,177.370 239.005,182.363 239.005 C 189.434 239.005,191.160 238.400,188.578 236.826 C 187.595 236.227,175.033 235.912,172.973 236.435 M226.030 236.826 C 224.864 237.537,224.777 238.138,225.638 239.549 C 226.377 240.762,226.601 240.780,228.569 239.781 C 230.039 239.035,230.325 239.005,236.028 239.001 C 241.951 238.996,243.277 238.792,243.592 237.837 C 244.129 236.208,228.517 235.310,226.030 236.826 M293.999 236.503 C 289.046 238.006,291.808 239.053,300.413 238.934 C 307.359 238.839,308.191 238.563,306.354 236.966 C 305.446 236.177,296.216 235.830,293.999 236.503 M350.033 236.509 C 348.234 236.788,347.425 237.271,347.673 237.916 C 347.951 238.641,348.726 238.760,354.491 238.963 C 359.994 239.157,360.135 239.179,361.445 240.046 L 362.783 240.931 364.527 239.733 C 368.235 237.184,366.758 236.425,357.887 236.325 C 354.468 236.287,350.934 236.369,350.033 236.509 M68.445 237.003 C 66.710 238.219,68.538 239.862,70.474 238.826 C 71.610 238.219,71.793 237.328,70.883 236.841 C 70.037 236.388,69.248 236.440,68.445 237.003 M65.444 240.536 C 64.783 241.267,64.997 242.113,65.842 242.113 C 66.593 242.113,67.216 241.378,67.077 240.656 C 66.925 239.867,66.105 239.807,65.444 240.536 M107.917 240.422 C 106.263 241.580,107.892 243.210,109.746 242.252 C 110.941 241.634,111.224 240.903,110.481 240.359 C 109.720 239.803,108.767 239.826,107.917 240.422 M286.444 240.582 C 285.422 241.386,285.420 241.654,286.432 242.317 C 287.402 242.952,289.355 242.168,289.355 241.143 C 289.355 239.943,287.670 239.618,286.444 240.582 M130.284 241.103 C 130.387 241.635,133.415 242.292,134.026 241.914 C 134.590 241.565,134.192 240.933,133.294 240.754 C 131.375 240.370,130.170 240.510,130.284 241.103 M308.802 240.835 C 308.488 241.343,309.387 241.738,311.111 241.848 C 312.450 241.934,312.821 241.860,312.821 241.506 C 312.821 240.767,309.216 240.165,308.802 240.835 M362.213 243.809 C 361.978 244.746,362.260 245.651,362.702 245.378 C 363.102 245.131,363.111 243.453,362.713 243.207 C 362.547 243.104,362.322 243.375,362.213 243.809 M61.849 244.134 C 61.149 244.879,61.137 244.953,61.639 245.456 C 62.362 246.178,63.248 245.617,63.248 244.436 C 63.248 243.277,62.755 243.170,61.849 244.134 M104.947 244.496 C 104.589 244.854,104.721 245.221,105.206 245.221 C 105.462 245.221,105.672 245.012,105.672 244.755 C 105.672 244.270,105.305 244.139,104.947 244.496 M283.450 244.781 C 283.450 245.052,283.616 245.218,283.819 245.150 C 284.395 244.958,284.491 244.289,283.942 244.289 C 283.671 244.289,283.450 244.510,283.450 244.781 M137.118 245.118 C 137.269 245.898,137.995 246.005,137.995 245.247 C 137.995 244.866,137.795 244.600,137.506 244.600 C 137.217 244.600,137.058 244.811,137.118 245.118 M315.467 244.833 C 315.481 245.521,316.085 245.996,316.374 245.547 C 316.534 245.299,316.596 244.984,316.511 244.848 C 316.317 244.534,315.461 244.521,315.467 244.833 M58.616 247.492 C 57.909 248.009,58.080 249.106,58.867 249.106 C 59.755 249.106,60.243 248.144,59.654 247.555 C 59.255 247.156,59.090 247.146,58.616 247.492 M101.528 247.915 C 101.230 248.213,101.282 249.340,101.619 249.873 C 101.850 250.239,101.970 250.163,102.227 249.487 C 102.673 248.312,102.199 247.244,101.528 247.915 M280.243 247.910 C 279.930 248.223,279.985 249.818,280.317 250.023 C 280.702 250.262,281.101 248.343,280.741 247.983 C 280.584 247.826,280.360 247.793,280.243 247.910 M54.892 251.290 C 54.269 251.913,54.262 252.188,54.856 252.681 C 55.473 253.192,56.324 252.532,56.192 251.644 C 56.070 250.819,55.514 250.668,54.892 251.290 M140.659 251.336 C 140.423 251.951,140.759 254.488,141.104 254.702 C 141.513 254.954,141.787 252.135,141.420 251.449 C 141.009 250.681,140.916 250.667,140.659 251.336 M319.391 251.032 C 318.929 251.493,319.369 254.976,319.851 254.677 C 320.204 254.460,320.209 251.215,319.857 250.998 C 319.710 250.907,319.500 250.922,319.391 251.032 M47.743 253.552 C 47.104 256.360,47.111 258.039,47.775 261.381 L 48.309 264.066 48.785 263.113 C 49.206 262.271,49.739 261.905,52.214 260.755 C 52.580 260.585,52.681 259.911,52.681 257.624 L 52.681 254.710 51.244 254.028 C 50.454 253.653,49.456 252.896,49.026 252.347 L 48.244 251.349 47.743 253.552 M226.170 252.942 C 224.858 254.448,224.693 255.963,225.666 257.539 C 226.421 258.759,226.650 258.797,228.283 257.964 C 230.294 256.939,231.145 257.118,232.807 258.916 C 234.335 260.569,234.897 260.579,235.410 258.962 C 235.693 258.073,237.215 257.374,239.609 257.034 C 242.037 256.690,243.778 255.967,243.585 255.382 C 243.277 254.449,241.918 254.244,236.007 254.239 L 230.055 254.235 228.337 253.331 C 226.750 252.496,226.584 252.466,226.170 252.942 M172.119 253.362 C 169.278 255.540,171.192 258.368,175.018 257.646 C 177.499 257.178,178.195 257.471,179.492 259.526 C 180.488 261.104,180.772 261.079,181.513 259.349 C 182.217 257.708,183.439 257.032,185.703 257.032 C 188.427 257.032,190.224 255.812,188.982 254.806 C 188.353 254.297,187.626 254.233,182.328 254.221 C 177.748 254.211,176.093 254.097,175.136 253.730 C 173.202 252.986,172.690 252.924,172.119 253.362 M355.315 258.329 C 354.862 258.782,354.813 259.718,355.229 259.975 C 355.649 260.235,356.138 259.158,355.898 258.500 C 355.739 258.063,355.617 258.027,355.315 258.329 M319.390 260.690 C 319.066 262.654,319.150 263.559,319.658 263.559 C 320.020 263.559,320.124 263.146,320.124 261.712 C 320.124 259.596,319.675 258.970,319.390 260.690 M140.977 260.167 C 140.592 261.062,140.618 263.330,141.014 263.470 C 141.561 263.663,141.794 262.355,141.470 260.917 C 141.275 260.055,141.124 259.825,140.977 260.167 M53.691 261.287 C 52.677 261.551,53.036 262.855,54.365 263.735 C 55.911 264.757,56.994 264.660,57.130 263.487 C 57.314 261.889,55.595 260.789,53.691 261.287 M236.939 262.480 C 236.732 263.018,237.389 263.945,237.797 263.692 C 237.949 263.599,238.073 263.265,238.073 262.952 C 238.073 262.228,237.178 261.855,236.939 262.480 M57.376 264.983 C 57.079 265.755,57.136 265.936,57.992 266.954 C 59.410 268.639,61.601 267.905,60.621 266.073 C 59.874 264.677,57.765 263.968,57.376 264.983 M101.439 265.875 C 101.344 266.123,101.356 266.473,101.467 266.652 C 101.829 267.238,102.253 266.994,102.253 266.200 C 102.253 265.358,101.719 265.144,101.439 265.875 M280.083 266.088 C 280.140 266.492,280.326 266.787,280.497 266.744 C 280.956 266.630,280.875 265.653,280.393 265.492 C 280.109 265.398,280.011 265.585,280.083 266.088 M61.124 268.428 C 60.304 269.248,61.800 271.365,63.481 271.761 C 64.032 271.891,64.336 272.166,64.336 272.536 C 64.336 273.950,66.074 275.193,67.378 274.711 C 68.780 274.192,67.355 271.329,65.695 271.329 C 65.443 271.329,65.040 270.860,64.801 270.286 C 64.149 268.726,61.942 267.610,61.124 268.428 M186.998 268.428 C 186.617 268.809,186.786 270.316,187.253 270.704 C 188.350 271.614,189.159 269.997,188.223 268.765 C 187.792 268.197,187.351 268.076,186.998 268.428 M240.760 268.918 C 240.539 269.765,241.311 270.701,241.815 270.197 C 242.045 269.967,242.031 269.623,241.768 269.045 C 241.309 268.037,241.001 267.999,240.760 268.918 M137.270 269.049 C 136.892 269.428,137.056 270.085,137.529 270.085 C 137.788 270.085,137.995 269.809,137.995 269.464 C 137.995 268.845,137.664 268.655,137.270 269.049 M315.644 269.353 C 315.399 269.991,315.606 270.216,316.221 269.980 C 316.494 269.875,316.617 269.595,316.512 269.320 C 316.273 268.697,315.890 268.712,315.644 269.353 M104.811 269.833 C 105.003 270.409,105.672 270.505,105.672 269.956 C 105.672 269.685,105.451 269.464,105.180 269.464 C 104.909 269.464,104.743 269.630,104.811 269.833 M283.450 269.904 C 283.450 270.175,283.671 270.396,283.942 270.396 C 284.491 270.396,284.395 269.727,283.819 269.535 C 283.616 269.467,283.450 269.634,283.450 269.904 M107.770 272.286 C 106.674 272.924,107.724 274.747,109.187 274.747 C 109.609 274.747,110.645 273.800,110.645 273.414 C 110.645 272.471,108.738 271.722,107.770 272.286 M243.967 272.593 C 243.573 273.329,244.352 274.881,245.008 274.665 C 245.519 274.497,245.641 273.355,245.230 272.588 C 244.796 271.778,244.403 271.779,243.967 272.593 M286.507 272.159 C 285.285 272.483,285.762 274.142,287.209 274.601 C 288.722 275.082,289.644 273.338,288.354 272.434 C 287.655 271.944,287.439 271.912,286.507 272.159 M131.648 272.849 C 130.426 273.039,129.812 273.684,130.588 273.964 C 131.476 274.285,134.100 273.667,134.207 273.112 C 134.319 272.531,133.948 272.492,131.648 272.849 M310.182 272.846 C 309.490 272.969,309.060 273.237,308.993 273.587 C 308.882 274.165,312.128 274.083,312.778 273.492 C 313.594 272.749,312.401 272.453,310.182 272.846 M190.569 273.365 C 190.628 273.670,190.864 273.982,191.094 274.058 C 191.362 274.147,191.474 273.998,191.405 273.644 C 191.346 273.339,191.109 273.027,190.879 272.950 C 190.612 272.861,190.500 273.011,190.569 273.365 M347.302 274.601 C 345.741 278.131,345.838 278.171,356.013 278.149 C 363.954 278.132,366.063 277.908,366.341 277.054 C 366.599 276.262,364.605 275.896,358.819 275.673 C 352.126 275.415,350.770 275.146,349.500 273.820 C 348.300 272.567,348.183 272.609,347.302 274.601 M120.280 275.664 C 113.307 275.872,111.462 276.498,114.381 277.666 C 115.860 278.258,126.716 278.403,127.759 277.845 C 129.037 277.161,127.925 275.181,126.403 275.430 C 126.198 275.464,123.442 275.569,120.280 275.664 M298.990 275.659 C 293.406 275.830,291.841 276.113,291.841 276.950 C 291.841 278.256,305.420 278.854,306.556 277.598 C 308.224 275.756,306.897 275.416,298.990 275.659 M68.868 276.191 C 68.462 277.250,69.550 277.868,71.452 277.658 C 74.163 277.358,74.217 276.791,71.603 276.045 C 69.856 275.546,69.100 275.587,68.868 276.191 M247.429 276.275 C 246.781 276.685,247.266 277.545,248.146 277.545 C 249.160 277.545,249.502 276.935,248.784 276.410 C 248.114 275.920,248.007 275.909,247.429 276.275 M193.939 276.923 C 193.939 277.094,194.149 277.234,194.406 277.234 C 194.662 277.234,194.872 277.094,194.872 276.923 C 194.872 276.752,194.662 276.612,194.406 276.612 C 194.149 276.612,193.939 276.752,193.939 276.923 " stroke="none" fill="#606268" fill-rule="evenodd"></path><path id="path4" d="M204.351 11.355 C 201.084 13.044,201.188 13.176,222.504 34.445 C 239.966 51.868,244.554 56.363,243.201 54.724 C 242.859 54.310,241.251 52.614,239.627 50.955 C 235.378 46.615,228.341 39.239,226.892 37.607 C 226.209 36.838,225.363 35.929,225.013 35.587 C 224.347 34.936,223.883 34.445,220.824 31.153 C 217.600 27.683,216.294 26.322,211.267 21.185 C 207.020 16.846,206.371 16.053,206.371 15.195 L 206.371 14.205 209.246 14.386 C 212.632 14.599,215.310 15.448,216.843 16.794 C 217.442 17.320,218.653 18.070,219.534 18.460 C 220.414 18.850,221.338 19.415,221.587 19.716 C 221.835 20.017,222.884 20.903,223.918 21.686 C 224.951 22.468,228.165 25.426,231.060 28.259 C 237.354 34.420,238.100 35.135,243.240 39.938 C 245.436 41.989,247.964 44.367,248.859 45.221 C 249.754 46.076,252.325 48.524,254.572 50.660 C 256.819 52.797,260.144 56.014,261.961 57.809 C 263.777 59.604,264.822 60.513,264.283 59.829 C 262.852 58.015,227.012 22.243,224.440 20.061 C 223.240 19.044,221.448 17.825,220.457 17.353 C 219.466 16.880,218.514 16.304,218.341 16.071 C 217.755 15.284,216.482 14.648,212.898 13.354 C 210.932 12.644,208.834 11.883,208.236 11.661 C 206.246 10.926,205.324 10.853,204.351 11.355 M179.487 24.709 C 179.316 24.767,178.517 24.904,177.711 25.012 C 176.509 25.174,175.960 25.485,174.652 26.746 C 173.775 27.591,172.883 28.283,172.669 28.283 C 172.455 28.283,171.477 28.985,170.496 29.844 C 169.515 30.702,168.177 31.678,167.522 32.012 C 166.867 32.346,165.935 33.044,165.450 33.564 C 164.965 34.083,163.251 35.799,161.640 37.378 C 160.029 38.957,158.350 40.648,157.910 41.136 C 157.470 41.625,156.445 42.662,155.633 43.441 C 154.821 44.221,154.157 44.990,154.157 45.152 C 154.157 45.314,154.402 45.169,154.701 44.831 C 155.000 44.494,156.229 43.324,157.432 42.233 C 158.635 41.142,161.113 38.867,162.938 37.178 C 166.720 33.677,166.766 33.642,169.075 32.467 C 170.016 31.988,171.314 31.061,171.962 30.406 C 172.609 29.751,173.337 29.215,173.579 29.215 C 174.493 29.215,175.573 28.481,175.931 27.617 C 176.310 26.704,176.627 26.566,178.931 26.313 C 180.862 26.101,181.383 26.863,179.769 27.538 C 178.417 28.103,177.894 28.681,177.611 29.922 C 177.476 30.514,177.032 30.979,176.188 31.409 C 175.356 31.833,174.754 32.456,174.318 33.344 C 173.964 34.065,173.244 34.934,172.718 35.276 C 172.193 35.618,171.455 36.457,171.079 37.141 C 170.703 37.824,170.017 38.572,169.555 38.801 C 169.092 39.031,168.312 39.853,167.820 40.629 C 167.328 41.404,166.441 42.368,165.847 42.771 C 165.254 43.174,164.680 43.784,164.571 44.125 C 164.463 44.467,163.953 45.168,163.438 45.682 C 162.924 46.197,162.728 46.532,163.003 46.426 C 163.278 46.321,163.915 45.635,164.420 44.901 C 164.924 44.168,165.821 43.269,166.414 42.903 C 167.006 42.537,167.790 41.752,168.157 41.158 C 168.524 40.564,169.233 39.867,169.733 39.608 C 170.233 39.350,171.060 38.561,171.571 37.855 C 172.083 37.149,172.987 36.241,173.582 35.837 C 174.177 35.433,174.878 34.686,175.141 34.177 C 175.405 33.669,176.174 32.902,176.852 32.475 C 177.529 32.047,178.416 31.170,178.822 30.527 C 179.228 29.884,180.064 29.086,180.679 28.755 C 183.330 27.327,182.278 23.753,179.487 24.709 M142.238 123.403 C 142.707 124.112,143.588 125.029,144.195 125.441 C 144.802 125.853,145.654 126.711,146.088 127.349 C 146.522 127.986,147.350 128.826,147.927 129.215 C 148.504 129.604,149.314 130.419,149.726 131.026 C 150.139 131.632,150.919 132.398,151.459 132.727 C 152.000 133.056,152.800 133.851,153.236 134.495 C 153.672 135.138,154.462 135.944,154.992 136.286 C 155.522 136.628,156.285 137.444,156.688 138.099 C 157.593 139.570,158.449 140.028,160.839 140.318 C 163.632 140.657,163.792 140.803,163.792 143.009 C 163.792 146.112,164.672 147.055,167.988 147.501 C 170.425 147.828,170.564 147.974,170.807 150.434 C 170.983 152.222,171.168 152.753,171.836 153.388 C 172.283 153.814,173.086 154.599,173.620 155.132 C 174.153 155.665,174.940 156.450,175.369 156.877 C 176.366 157.870,178.105 159.609,179.098 160.606 C 180.089 161.601,181.522 163.035,182.517 164.025 C 183.994 165.496,185.474 166.978,186.276 167.793 C 192.324 173.930,197.762 179.021,198.269 179.021 C 199.223 179.021,200.410 178.377,200.936 177.573 C 201.199 177.172,201.969 176.493,202.647 176.065 C 203.325 175.637,204.230 174.732,204.658 174.055 C 205.086 173.377,205.857 172.605,206.371 172.339 C 206.886 172.073,207.655 171.303,208.081 170.629 C 208.506 169.955,209.268 169.190,209.774 168.928 C 210.280 168.667,211.118 167.836,211.636 167.083 C 212.154 166.329,213.035 165.430,213.593 165.084 C 214.151 164.739,214.863 164.022,215.176 163.491 C 215.489 162.959,216.288 162.165,216.953 161.725 C 217.617 161.286,218.428 160.473,218.755 159.919 C 219.082 159.365,219.985 158.455,220.763 157.897 C 221.541 157.338,222.332 156.507,222.521 156.050 C 222.711 155.593,223.370 154.947,223.986 154.616 C 224.602 154.284,225.462 153.474,225.898 152.817 C 226.333 152.159,227.272 151.220,227.986 150.729 C 228.699 150.238,229.459 149.410,229.675 148.889 C 229.891 148.367,230.156 147.938,230.263 147.934 C 230.371 147.930,230.808 147.642,231.235 147.294 L 232.012 146.660 230.980 147.165 C 230.413 147.442,229.683 148.119,229.358 148.669 C 229.033 149.220,228.137 150.069,227.366 150.556 C 226.596 151.043,225.691 151.905,225.357 152.472 C 225.023 153.038,224.205 153.779,223.541 154.119 C 222.876 154.458,221.993 155.235,221.578 155.845 C 221.163 156.456,220.564 157.039,220.247 157.141 C 219.930 157.244,218.844 158.118,217.835 159.083 C 216.826 160.049,215.617 161.202,215.148 161.646 C 214.680 162.090,214.017 162.754,213.675 163.122 C 211.819 165.120,208.575 168.143,208.287 168.143 C 208.105 168.143,207.522 168.772,206.993 169.541 C 206.464 170.310,205.618 171.153,205.112 171.415 C 204.606 171.676,203.844 172.442,203.419 173.116 C 202.993 173.790,202.225 174.559,201.712 174.824 C 201.198 175.090,200.336 175.793,199.795 176.387 C 198.557 177.747,197.897 177.750,197.100 176.398 C 196.753 175.810,195.933 174.974,195.279 174.541 C 194.625 174.109,193.835 173.280,193.522 172.701 C 193.210 172.121,192.420 171.346,191.766 170.979 C 191.112 170.611,190.295 169.831,189.949 169.245 C 189.603 168.660,188.785 167.826,188.131 167.393 C 187.477 166.960,186.691 166.141,186.385 165.572 C 186.078 165.003,185.327 164.268,184.715 163.939 C 184.102 163.609,183.279 162.828,182.885 162.204 C 182.491 161.580,181.677 160.766,181.077 160.395 C 180.476 160.024,179.681 159.229,179.310 158.628 C 178.939 158.027,178.107 157.203,177.463 156.796 C 176.818 156.389,175.968 155.594,175.573 155.029 C 175.179 154.464,174.640 153.871,174.375 153.712 C 171.874 152.206,171.836 150.206,174.252 147.260 C 174.995 146.355,175.602 145.499,175.602 145.359 C 175.602 145.218,176.371 144.322,177.312 143.366 C 178.252 142.411,179.021 141.399,179.021 141.118 C 179.021 140.836,179.196 140.418,179.409 140.188 C 179.725 139.847,179.711 139.815,179.332 140.016 C 179.011 140.185,178.963 140.160,179.176 139.936 C 179.347 139.756,179.752 139.561,180.076 139.502 C 181.015 139.330,182.027 137.775,181.621 137.129 C 180.830 135.873,179.021 136.880,179.021 138.576 C 179.021 139.384,178.902 139.483,177.754 139.637 C 176.330 139.828,175.515 140.434,174.995 141.690 C 174.778 142.213,174.239 142.688,173.598 142.920 C 173.024 143.128,172.041 143.923,171.415 144.687 C 170.290 146.061,170.255 146.076,168.347 146.076 C 164.517 146.076,164.186 144.801,166.879 140.425 C 167.745 139.017,168.454 137.737,168.454 137.580 C 168.454 137.422,169.083 136.707,169.852 135.991 C 170.935 134.983,171.251 134.469,171.251 133.716 C 171.251 131.697,169.433 131.876,167.832 134.054 C 167.335 134.729,166.611 135.440,166.224 135.633 C 165.837 135.826,165.207 136.472,164.824 137.067 C 163.276 139.478,163.434 139.382,161.137 139.314 L 159.019 139.251 157.287 137.549 C 156.335 136.612,154.577 134.930,153.380 133.810 C 152.183 132.689,150.925 131.470,150.583 131.099 C 150.241 130.729,149.566 130.066,149.084 129.626 C 148.601 129.187,146.672 127.316,144.795 125.470 C 142.378 123.091,141.633 122.489,142.238 123.403 M174.811 126.916 C 174.457 127.793,176.468 128.601,176.973 127.784 C 177.063 127.638,176.793 127.584,176.373 127.664 C 175.783 127.777,175.544 127.642,175.326 127.075 C 175.067 126.404,175.023 126.390,174.811 126.916 M172.665 129.271 C 171.742 130.603,171.716 131.555,172.599 131.725 C 173.848 131.966,174.769 130.101,174.170 128.541 C 173.884 127.794,173.589 127.937,172.665 129.271 M173.910 130.424 C 173.781 130.936,173.535 131.164,173.186 131.097 C 172.440 130.954,172.338 129.981,172.992 129.258 C 173.684 128.493,174.223 129.177,173.910 130.424 M170.508 133.464 C 170.760 134.122,170.043 135.250,169.446 135.136 C 169.161 135.081,168.879 134.786,168.820 134.480 C 168.608 133.378,170.124 132.465,170.508 133.464 M183.579 133.541 C 183.275 133.845,183.327 134.823,183.658 135.027 C 184.085 135.291,184.926 134.316,184.724 133.791 C 184.542 133.315,183.937 133.183,183.579 133.541 M167.211 137.498 C 167.211 138.322,166.237 139.281,165.784 138.904 C 165.202 138.421,165.229 137.535,165.845 136.919 C 166.374 136.390,167.211 136.745,167.211 137.498 M180.886 137.685 C 180.886 138.030,180.679 138.306,180.420 138.306 C 179.946 138.306,179.782 137.649,180.161 137.270 C 180.555 136.876,180.886 137.065,180.886 137.685 M177.467 141.240 C 177.467 141.879,176.824 142.192,176.520 141.702 C 176.380 141.474,176.334 141.177,176.418 141.040 C 176.679 140.618,177.467 140.768,177.467 141.240 M174.048 144.876 C 174.048 145.229,173.157 145.600,172.909 145.351 C 172.809 145.252,172.810 144.957,172.910 144.696 C 173.099 144.205,174.048 144.355,174.048 144.876 M67.458 235.438 C 66.081 236.057,56.822 245.371,55.998 246.965 C 55.241 248.430,52.144 250.247,51.499 249.604 C 51.246 249.352,51.077 247.261,50.971 243.078 C 50.805 236.488,50.751 236.268,49.122 235.593 C 48.057 235.152,46.208 235.857,45.638 236.923 C 45.087 237.951,45.169 276.909,45.723 277.797 C 46.403 278.885,47.918 279.466,49.049 279.072 C 50.812 278.457,50.971 277.849,50.971 271.710 C 50.971 264.832,50.992 264.785,53.589 265.841 C 54.997 266.414,55.549 266.833,55.964 267.640 C 56.261 268.219,57.042 268.997,57.700 269.368 C 58.358 269.739,59.148 270.513,59.455 271.087 C 59.762 271.662,60.572 272.476,61.255 272.896 C 61.938 273.316,62.771 274.122,63.105 274.687 C 63.474 275.310,64.242 275.948,65.054 276.307 C 65.791 276.634,66.590 277.267,66.830 277.715 C 68.130 280.144,74.668 280.137,75.776 277.706 C 76.375 276.391,75.413 275.159,73.193 274.397 C 72.343 274.105,70.837 272.890,68.428 270.552 C 66.490 268.671,64.444 266.893,63.881 266.601 C 63.318 266.308,62.563 265.571,62.204 264.963 C 61.845 264.354,61.052 263.561,60.441 263.201 C 59.830 262.841,58.987 262.039,58.567 261.421 C 58.147 260.802,57.210 260.014,56.485 259.671 C 55.211 259.068,55.164 258.993,55.074 257.444 C 54.975 255.732,55.084 255.548,56.803 254.529 C 57.361 254.199,58.047 253.445,58.328 252.855 C 58.617 252.250,59.228 251.622,59.729 251.414 C 60.714 251.007,62.160 249.448,62.160 248.795 C 62.160 248.565,62.754 248.049,63.481 247.648 C 64.258 247.221,65.053 246.454,65.412 245.786 C 65.748 245.162,66.477 244.435,67.034 244.169 C 67.590 243.904,68.398 243.128,68.830 242.444 C 69.379 241.573,70.070 241.005,71.130 240.548 C 72.916 239.780,74.757 238.019,74.493 237.331 C 73.828 235.597,69.621 234.465,67.458 235.438 M112.665 235.425 C 111.573 235.819,110.029 237.219,110.025 237.819 C 110.023 238.042,109.785 238.127,107.580 238.697 C 105.589 239.212,100.411 244.373,99.295 246.954 C 98.858 247.967,98.050 249.697,97.501 250.800 C 96.515 252.781,96.503 252.855,96.503 257.351 L 96.503 261.899 97.654 264.205 C 98.287 265.474,99.087 267.184,99.432 268.007 C 100.504 270.560,105.683 275.427,108.029 276.085 C 109.498 276.497,110.005 276.807,110.456 277.572 C 111.478 279.302,112.536 279.535,119.931 279.661 C 128.060 279.800,128.401 279.744,130.093 278.004 C 131.059 277.010,131.880 276.510,133.154 276.140 C 135.019 275.597,136.597 274.482,136.915 273.482 C 137.022 273.143,137.624 272.624,138.252 272.330 C 139.017 271.972,139.611 271.364,140.052 270.492 C 140.414 269.776,141.205 268.722,141.811 268.151 C 145.145 265.006,145.092 249.588,141.735 246.466 C 141.091 245.867,140.460 245.027,140.332 244.600 C 140.028 243.584,139.075 242.561,138.029 242.128 C 137.569 241.937,136.948 241.326,136.648 240.771 C 135.978 239.525,135.525 239.235,133.195 238.558 C 131.746 238.136,131.072 237.714,130.023 236.572 L 128.691 235.120 121.300 235.048 C 115.498 234.992,113.641 235.073,112.665 235.425 M170.522 235.418 C 169.865 235.653,168.991 236.160,168.580 236.547 L 167.832 237.249 167.832 257.369 L 167.832 277.489 168.827 278.326 C 170.244 279.519,173.426 279.368,174.556 278.054 C 175.285 277.207,175.291 277.135,175.291 269.745 C 175.291 262.879,175.341 262.194,175.919 261.060 C 176.744 259.444,176.879 259.489,177.954 261.737 C 178.521 262.925,179.358 264.048,180.170 264.713 C 180.896 265.308,181.630 266.253,181.825 266.843 C 182.017 267.425,182.633 268.289,183.193 268.761 C 183.753 269.233,184.564 270.401,184.995 271.356 C 185.426 272.312,186.338 273.640,187.023 274.309 C 187.707 274.977,188.634 276.115,189.082 276.838 C 190.174 278.598,190.926 279.029,193.329 279.274 C 197.628 279.713,198.907 276.207,195.155 274.267 C 194.576 273.968,193.994 273.278,193.646 272.477 C 193.334 271.760,192.633 270.754,192.089 270.241 C 191.545 269.728,190.682 268.433,190.171 267.362 C 189.660 266.292,188.672 264.893,187.975 264.254 C 187.278 263.615,186.508 262.622,186.264 262.048 C 186.021 261.473,185.383 260.603,184.847 260.114 C 183.625 258.997,183.646 258.980,186.962 258.402 C 190.233 257.831,190.388 257.756,192.728 255.604 C 193.733 254.680,194.678 253.924,194.827 253.924 C 197.972 253.924,198.326 241.429,195.233 239.588 C 194.607 239.216,193.395 238.239,192.541 237.418 C 190.013 234.990,189.875 234.963,180.196 234.979 C 173.832 234.989,171.419 235.099,170.522 235.418 M224.113 235.748 C 221.769 237.103,221.932 235.497,221.921 257.366 L 221.911 277.126 222.639 277.809 C 224.209 279.284,227.291 279.543,228.462 278.298 C 229.211 277.501,229.216 277.447,229.381 269.207 C 229.497 263.374,229.667 260.640,229.954 259.984 L 230.361 259.052 231.103 260.573 C 231.510 261.409,232.686 262.971,233.715 264.043 C 234.745 265.114,235.587 266.149,235.587 266.342 C 235.587 266.535,236.205 267.355,236.962 268.163 C 237.718 268.972,238.438 270.036,238.561 270.528 C 238.685 271.020,239.429 272.144,240.216 273.027 C 241.003 273.909,242.085 275.266,242.619 276.043 C 244.130 278.238,245.501 279.127,247.679 279.324 C 251.600 279.680,252.781 275.921,249.305 274.148 C 248.413 273.693,247.961 273.170,247.488 272.047 C 247.142 271.224,246.300 269.922,245.617 269.153 C 244.935 268.384,244.000 267.011,243.541 266.103 C 243.016 265.068,242.312 264.220,241.650 263.830 C 240.986 263.438,240.462 262.808,240.239 262.132 C 240.044 261.540,239.541 260.648,239.121 260.150 C 238.169 259.018,238.491 258.779,241.642 258.276 C 244.605 257.803,245.684 257.271,246.587 255.841 C 247.105 255.020,247.738 254.481,248.465 254.241 C 250.966 253.416,252.116 248.455,251.103 242.870 C 250.672 240.497,250.149 239.719,248.515 239.018 C 247.662 238.653,246.953 238.054,246.536 237.348 C 245.268 235.199,244.917 235.130,234.654 235.037 L 225.486 234.954 224.113 235.748 M291.528 235.377 C 290.075 235.864,289.597 236.204,288.960 237.206 C 288.613 237.752,287.958 238.174,287.103 238.404 C 284.277 239.164,279.465 243.555,277.989 246.719 C 277.536 247.690,276.727 249.387,276.190 250.489 C 274.694 253.560,274.694 261.126,276.190 264.196 C 276.727 265.299,277.526 266.974,277.966 267.919 C 279.199 270.567,284.350 275.507,286.416 276.024 C 287.563 276.311,288.274 276.751,289.200 277.750 C 290.827 279.506,291.999 279.720,299.975 279.720 C 306.862 279.720,307.849 279.515,308.812 277.886 C 309.125 277.356,309.595 276.848,309.857 276.758 C 310.120 276.667,311.241 276.283,312.349 275.903 C 314.022 275.331,314.509 274.996,315.218 273.933 C 315.687 273.229,316.501 272.474,317.027 272.257 C 317.669 271.991,318.232 271.371,318.738 270.373 C 319.152 269.555,319.760 268.698,320.088 268.468 C 323.745 265.906,323.851 249.702,320.232 246.346 C 319.781 245.929,319.112 244.991,318.746 244.263 C 318.313 243.403,317.671 242.727,316.915 242.335 C 316.275 242.002,315.548 241.336,315.298 240.853 C 314.723 239.741,313.777 239.076,312.199 238.672 C 310.054 238.124,309.338 237.744,308.982 236.964 C 308.113 235.057,295.826 233.940,291.528 235.377 M346.780 235.605 C 344.991 236.550,344.778 238.280,346.311 239.423 C 347.353 240.200,349.888 240.520,355.245 240.548 C 357.382 240.560,359.336 240.699,359.587 240.858 C 360.270 241.290,359.531 243.724,358.229 245.335 C 357.109 246.720,356.644 247.927,356.307 250.318 C 356.151 251.427,355.806 252.157,355.035 253.010 C 354.405 253.708,353.604 255.206,353.051 256.720 C 352.541 258.117,351.700 259.787,351.182 260.432 C 350.288 261.545,349.351 264.185,349.343 265.615 C 349.341 265.977,348.590 267.401,347.673 268.778 C 346.756 270.156,345.852 271.893,345.664 272.640 C 345.476 273.387,344.900 274.621,344.384 275.383 C 343.226 277.092,343.226 277.043,344.392 278.086 C 346.071 279.590,346.689 279.673,356.177 279.672 C 367.630 279.670,369.765 279.092,368.611 276.307 C 367.911 274.616,366.978 274.378,360.076 274.132 C 352.400 273.858,352.096 273.762,353.375 272.015 C 353.714 271.552,354.217 270.054,354.493 268.687 C 354.876 266.788,355.206 265.978,355.890 265.260 C 356.757 264.350,358.353 260.942,358.353 260.001 C 358.353 259.748,358.753 259.080,359.242 258.519 C 360.509 257.064,361.021 255.915,361.414 253.638 C 361.630 252.387,362.081 251.186,362.620 250.421 C 364.180 248.207,365.157 246.327,365.356 245.154 C 365.464 244.519,365.974 243.470,366.490 242.823 C 369.507 239.040,369.509 236.125,366.497 235.288 C 364.175 234.643,348.113 234.902,346.780 235.605 M127.444 236.682 C 128.462 237.209,128.717 238.491,127.869 238.817 C 125.463 239.740,112.848 238.769,113.207 237.689 C 113.672 236.292,125.122 235.482,127.444 236.682 M188.578 236.826 C 191.160 238.400,189.434 239.005,182.363 239.005 C 177.370 239.005,176.268 239.094,174.799 239.610 C 172.925 240.269,172.310 240.191,171.491 239.193 C 170.517 238.007,171.107 236.909,172.973 236.435 C 175.033 235.912,187.595 236.227,188.578 236.826 M242.373 236.834 C 245.519 238.261,243.369 238.995,236.028 239.001 C 230.325 239.005,230.039 239.035,228.569 239.781 C 226.458 240.852,225.025 240.129,225.021 237.991 C 225.017 236.138,238.812 235.218,242.373 236.834 M306.354 236.966 C 308.191 238.563,307.359 238.839,300.413 238.934 C 291.808 239.053,289.046 238.006,293.999 236.503 C 296.216 235.830,305.446 236.177,306.354 236.966 M365.292 236.918 C 366.880 237.615,366.712 238.230,364.527 239.733 L 362.783 240.931 361.445 240.046 C 360.135 239.179,359.994 239.157,354.491 238.963 C 347.943 238.733,346.507 238.330,347.954 237.130 C 349.193 236.101,363.045 235.931,365.292 236.918 M70.883 236.841 C 71.793 237.328,71.610 238.219,70.474 238.826 C 68.538 239.862,66.710 238.219,68.445 237.003 C 69.248 236.440,70.037 236.388,70.883 236.841 M67.077 240.656 C 67.216 241.378,66.593 242.113,65.842 242.113 C 64.997 242.113,64.783 241.267,65.444 240.536 C 66.105 239.807,66.925 239.867,67.077 240.656 M110.481 240.359 C 111.224 240.903,110.941 241.634,109.746 242.252 C 107.892 243.210,106.263 241.580,107.917 240.422 C 108.767 239.826,109.720 239.803,110.481 240.359 M288.754 240.260 C 289.679 240.755,289.478 241.638,288.297 242.275 C 286.436 243.277,284.855 241.832,286.444 240.582 C 287.362 239.861,287.874 239.789,288.754 240.260 M127.350 241.151 C 127.650 241.477,128.126 242.080,128.409 242.492 C 128.692 242.904,129.520 243.419,130.249 243.638 C 132.068 244.183,135.005 247.016,135.713 248.909 C 136.010 249.701,136.568 250.839,136.955 251.437 C 138.972 254.561,139.021 260.297,137.054 263.001 C 136.718 263.464,136.165 264.586,135.825 265.494 C 135.023 267.638,132.513 270.147,130.388 270.929 C 129.325 271.320,128.616 271.835,128.117 272.579 C 127.156 274.010,126.912 274.059,120.591 274.093 C 114.849 274.124,112.971 273.846,112.678 272.922 C 112.401 272.050,111.207 271.072,109.854 270.608 C 108.934 270.293,108.439 269.854,107.887 268.865 C 107.481 268.138,106.721 267.283,106.199 266.965 C 104.027 265.644,102.638 258.539,103.737 254.365 C 104.093 253.011,104.546 251.090,104.744 250.096 C 105.045 248.579,105.261 248.194,106.087 247.700 C 106.628 247.377,107.422 246.525,107.852 245.807 C 108.493 244.734,108.935 244.398,110.332 243.924 C 111.335 243.583,112.543 242.854,113.280 242.145 C 114.935 240.555,114.649 240.612,121.134 240.584 C 126.332 240.561,126.852 240.609,127.350 241.151 M133.294 240.754 C 134.192 240.933,134.590 241.565,134.026 241.914 C 133.415 242.292,130.387 241.635,130.284 241.103 C 130.170 240.510,131.375 240.370,133.294 240.754 M188.863 241.803 C 189.247 242.401,190.057 243.405,190.663 244.033 C 192.353 245.787,192.258 247.513,190.365 249.434 C 189.596 250.214,188.967 251.046,188.967 251.283 C 188.967 252.435,187.764 252.681,182.129 252.681 C 174.774 252.681,175.291 253.144,175.291 246.559 C 175.291 240.023,174.668 240.551,182.272 240.643 L 188.165 240.715 188.863 241.803 M242.693 241.527 C 243.144 242.059,243.967 242.924,244.522 243.449 C 246.125 244.963,246.046 248.269,244.367 249.946 C 243.726 250.586,242.892 251.463,242.513 251.895 L 241.825 252.681 236.199 252.681 C 228.746 252.681,229.371 253.235,229.371 246.625 C 229.371 240.017,228.737 240.581,236.166 240.569 L 241.874 240.559 242.693 241.527 M306.692 242.072 C 307.615 243.025,308.549 243.670,309.213 243.816 C 310.716 244.145,313.610 247.124,314.354 249.106 C 314.675 249.961,315.196 250.994,315.511 251.402 C 317.544 254.031,317.524 259.942,315.470 263.248 C 314.992 264.017,314.434 265.172,314.230 265.814 C 313.691 267.510,311.278 269.924,309.220 270.825 C 308.150 271.294,307.118 272.043,306.529 272.778 L 305.573 273.970 299.840 274.072 C 293.094 274.192,291.868 273.968,290.926 272.443 C 290.326 271.474,289.232 270.755,287.612 270.268 C 287.252 270.160,286.712 269.529,286.413 268.866 C 286.114 268.202,285.371 267.331,284.762 266.930 C 282.615 265.515,281.116 257.831,282.309 254.351 C 282.536 253.689,282.912 252.113,283.144 250.849 C 283.531 248.745,283.664 248.483,284.729 247.741 C 285.369 247.295,286.128 246.416,286.417 245.788 C 286.764 245.033,287.274 244.523,287.916 244.286 C 290.106 243.478,290.867 243.049,292.272 241.834 L 293.744 240.559 299.485 240.559 L 305.225 240.559 306.692 242.072 M312.044 240.838 C 312.471 240.956,312.821 241.257,312.821 241.506 C 312.821 242.034,309.682 241.967,309.017 241.425 C 308.088 240.667,310.058 240.285,312.044 240.838 M363.015 244.289 C 363.015 245.303,362.485 245.822,362.202 245.085 C 361.947 244.420,362.340 242.976,362.713 243.207 C 362.879 243.309,363.015 243.796,363.015 244.289 M63.248 244.436 C 63.248 245.617,62.362 246.178,61.639 245.456 C 61.137 244.953,61.149 244.879,61.849 244.134 C 62.755 243.170,63.248 243.277,63.248 244.436 M105.672 244.755 C 105.672 245.012,105.462 245.221,105.206 245.221 C 104.721 245.221,104.589 244.854,104.947 244.496 C 105.305 244.139,105.672 244.270,105.672 244.755 M284.311 244.658 C 284.119 245.234,283.450 245.330,283.450 244.781 C 283.450 244.510,283.671 244.289,283.942 244.289 C 284.213 244.289,284.379 244.455,284.311 244.658 M137.995 245.247 C 137.995 246.005,137.269 245.898,137.118 245.118 C 137.058 244.811,137.217 244.600,137.506 244.600 C 137.795 244.600,137.995 244.866,137.995 245.247 M316.511 244.848 C 316.596 244.984,316.534 245.299,316.374 245.547 C 316.085 245.996,315.481 245.521,315.467 244.833 C 315.461 244.521,316.317 244.534,316.511 244.848 M59.790 248.568 C 59.332 249.295,58.312 249.255,58.168 248.505 C 57.994 247.605,59.037 246.938,59.654 247.555 C 60.016 247.917,60.049 248.158,59.790 248.568 M102.367 248.177 C 102.651 248.918,101.979 250.443,101.619 249.873 C 101.460 249.622,101.328 249.126,101.326 248.770 C 101.318 247.714,102.033 247.307,102.367 248.177 M280.814 249.234 C 280.698 249.765,280.474 250.120,280.317 250.023 C 279.985 249.818,279.930 248.223,280.243 247.910 C 280.671 247.483,281.021 248.294,280.814 249.234 M56.192 251.644 C 56.324 252.532,55.473 253.192,54.856 252.681 C 54.262 252.188,54.269 251.913,54.892 251.290 C 55.514 250.668,56.070 250.819,56.192 251.644 M141.420 251.449 C 141.787 252.135,141.513 254.954,141.104 254.702 C 140.759 254.488,140.423 251.951,140.659 251.336 C 140.916 250.667,141.009 250.681,141.420 251.449 M320.124 252.836 C 320.124 253.756,320.001 254.585,319.851 254.677 C 319.369 254.976,318.929 251.493,319.391 251.032 C 319.845 250.577,320.124 251.264,320.124 252.836 M51.244 254.028 L 52.681 254.710 52.681 257.624 C 52.681 259.911,52.580 260.585,52.214 260.755 C 49.739 261.905,49.206 262.271,48.785 263.113 L 48.309 264.066 47.775 261.381 C 47.111 258.039,47.104 256.360,47.743 253.552 L 48.244 251.349 49.026 252.347 C 49.456 252.896,50.454 253.653,51.244 254.028 M236.007 254.239 C 241.918 254.244,243.277 254.449,243.585 255.382 C 243.778 255.967,242.037 256.690,239.609 257.034 C 237.215 257.374,235.693 258.073,235.410 258.962 C 234.897 260.579,234.335 260.569,232.807 258.916 C 231.145 257.118,230.294 256.939,228.283 257.964 C 225.342 259.463,223.762 255.708,226.170 252.942 C 226.584 252.466,226.750 252.496,228.337 253.331 L 230.055 254.235 236.007 254.239 M175.136 253.730 C 176.093 254.097,177.748 254.211,182.328 254.221 C 187.626 254.233,188.353 254.297,188.982 254.806 C 190.224 255.812,188.427 257.032,185.703 257.032 C 183.439 257.032,182.217 257.708,181.513 259.349 C 180.772 261.079,180.488 261.104,179.492 259.526 C 178.195 257.471,177.499 257.178,175.018 257.646 C 171.894 258.236,170.036 256.816,171.127 254.674 C 172.039 252.884,172.595 252.753,175.136 253.730 M355.812 259.605 C 355.654 259.909,355.392 260.075,355.229 259.975 C 354.813 259.718,354.862 258.782,355.315 258.329 C 355.827 257.817,356.218 258.823,355.812 259.605 M320.124 261.712 C 320.124 263.146,320.020 263.559,319.658 263.559 C 319.150 263.559,319.066 262.654,319.390 260.690 C 319.675 258.970,320.124 259.596,320.124 261.712 M141.571 262.881 C 141.472 263.278,141.222 263.543,141.014 263.470 C 140.618 263.330,140.592 261.062,140.977 260.167 C 141.271 259.483,141.807 261.932,141.571 262.881 M56.444 261.855 C 57.456 262.867,57.381 264.286,56.308 264.438 C 55.227 264.591,53.147 263.104,53.147 262.178 C 53.147 260.903,55.283 260.694,56.444 261.855 M238.073 262.952 C 238.073 263.265,237.949 263.599,237.797 263.692 C 237.389 263.945,236.732 263.018,236.939 262.480 C 237.178 261.855,238.073 262.228,238.073 262.952 M59.602 264.973 C 61.205 266.096,61.253 267.910,59.680 267.910 C 58.852 267.910,57.187 266.458,57.187 265.736 C 57.187 264.485,58.371 264.111,59.602 264.973 M102.253 266.200 C 102.253 266.994,101.829 267.238,101.467 266.652 C 101.209 266.233,101.516 265.423,101.933 265.423 C 102.109 265.423,102.253 265.773,102.253 266.200 M280.808 266.149 C 280.808 266.959,280.199 266.908,280.083 266.088 C 280.011 265.585,280.109 265.398,280.393 265.492 C 280.621 265.568,280.808 265.864,280.808 266.149 M63.584 268.732 C 64.014 269.014,64.561 269.713,64.801 270.286 C 65.040 270.860,65.443 271.329,65.695 271.329 C 67.355 271.329,68.780 274.192,67.378 274.711 C 66.074 275.193,64.336 273.950,64.336 272.536 C 64.336 272.166,64.032 271.891,63.481 271.761 C 61.800 271.365,60.304 269.248,61.124 268.428 C 61.500 268.052,62.790 268.212,63.584 268.732 M188.223 268.765 C 188.783 269.502,188.762 270.686,188.186 270.907 C 187.498 271.171,186.791 270.446,186.791 269.478 C 186.791 268.135,187.483 267.790,188.223 268.765 M241.768 269.045 C 242.031 269.623,242.045 269.967,241.815 270.197 C 241.311 270.701,240.539 269.765,240.760 268.918 C 241.001 267.999,241.309 268.037,241.768 269.045 M137.995 269.464 C 137.995 269.809,137.788 270.085,137.529 270.085 C 137.056 270.085,136.892 269.428,137.270 269.049 C 137.664 268.655,137.995 268.845,137.995 269.464 M316.512 269.320 C 316.617 269.595,316.494 269.875,316.221 269.980 C 315.606 270.216,315.399 269.991,315.644 269.353 C 315.890 268.712,316.273 268.697,316.512 269.320 M105.672 269.956 C 105.672 270.505,105.003 270.409,104.811 269.833 C 104.743 269.630,104.909 269.464,105.180 269.464 C 105.451 269.464,105.672 269.685,105.672 269.956 M284.311 270.027 C 284.379 270.230,284.213 270.396,283.942 270.396 C 283.671 270.396,283.450 270.175,283.450 269.904 C 283.450 269.355,284.119 269.451,284.311 270.027 M109.965 272.584 C 110.781 273.344,110.791 273.449,110.131 274.179 C 109.275 275.124,107.226 274.414,107.226 273.173 C 107.226 271.971,108.917 271.608,109.965 272.584 M245.230 272.588 C 245.641 273.355,245.519 274.497,245.008 274.665 C 244.352 274.881,243.573 273.329,243.967 272.593 C 244.403 271.779,244.796 271.778,245.230 272.588 M288.354 272.434 C 289.644 273.338,288.722 275.082,287.209 274.601 C 285.762 274.142,285.285 272.483,286.507 272.159 C 287.439 271.912,287.655 271.944,288.354 272.434 M134.207 273.112 C 134.100 273.667,131.476 274.285,130.588 273.964 C 129.812 273.684,130.426 273.039,131.648 272.849 C 133.948 272.492,134.319 272.531,134.207 273.112 M312.837 272.910 C 313.176 273.458,312.622 273.723,310.699 273.936 C 309.076 274.116,308.899 274.080,308.993 273.587 C 309.141 272.811,312.419 272.234,312.837 272.910 M191.405 273.644 C 191.474 273.998,191.362 274.147,191.094 274.058 C 190.864 273.982,190.628 273.670,190.569 273.365 C 190.500 273.011,190.612 272.861,190.879 272.950 C 191.109 273.027,191.346 273.339,191.405 273.644 M349.500 273.820 C 350.770 275.146,352.126 275.415,358.819 275.673 C 364.605 275.896,366.599 276.262,366.341 277.054 C 366.063 277.908,363.954 278.132,356.013 278.149 C 345.838 278.171,345.741 278.131,347.302 274.601 C 348.183 272.609,348.300 272.567,349.500 273.820 M127.569 275.730 C 128.528 276.167,128.637 277.375,127.759 277.845 C 126.716 278.403,115.860 278.258,114.381 277.666 C 111.462 276.498,113.307 275.872,120.280 275.664 C 123.442 275.569,126.198 275.464,126.403 275.430 C 126.609 275.397,127.134 275.531,127.569 275.730 M306.680 276.054 C 307.206 276.490,307.172 276.918,306.556 277.598 C 305.420 278.854,291.841 278.256,291.841 276.950 C 291.841 275.677,305.251 274.867,306.680 276.054 M71.603 276.045 C 74.217 276.791,74.163 277.358,71.452 277.658 C 69.550 277.868,68.462 277.250,68.868 276.191 C 69.100 275.587,69.856 275.546,71.603 276.045 M248.784 276.410 C 249.502 276.935,249.160 277.545,248.146 277.545 C 247.266 277.545,246.781 276.685,247.429 276.275 C 248.007 275.909,248.114 275.920,248.784 276.410 M194.872 276.923 C 194.872 277.094,194.662 277.234,194.406 277.234 C 194.149 277.234,193.939 277.094,193.939 276.923 C 193.939 276.752,194.149 276.612,194.406 276.612 C 194.662 276.612,194.872 276.752,194.872 276.923 " stroke="none" fill="#b1b1b4" fill-rule="evenodd"></path></g></svg>